<svg width="17" height="20" viewBox="0 0 17 20" fill="none" xmlns="http://www.w3.org/2000/svg">
<path d="M8.5 19C8.993 19.0024 9.46693 18.8096 9.81824 18.4637C10.1696 18.1178 10.3697 17.647 10.375 17.154H6.625C6.63028 17.647 6.83044 18.1178 7.18176 18.4637C7.53307 18.8096 8.007 19.0024 8.5 19V19ZM14.125 13.462V8.846C14.125 6.012 12.597 3.64 9.906 3.012V2.385C9.906 2.01211 9.75787 1.65449 9.49419 1.39081C9.23052 1.12714 8.87289 0.979004 8.5 0.979004C8.12711 0.979004 7.76948 1.12714 7.50581 1.39081C7.24213 1.65449 7.094 2.01211 7.094 2.385V3.013C4.412 3.64 2.875 6 2.875 8.846V13.461L1 15.308V16.231H16V15.308L14.125 13.462Z" stroke="black" stroke-width="0.8"/>
</svg>
