<svg width="12" height="12" viewBox="0 0 12 12" fill="none" xmlns="http://www.w3.org/2000/svg">
<path d="M5.521 11.043C4.42909 11.043 3.36171 10.7192 2.4538 10.1126C1.5459 9.50598 0.83826 8.64378 0.420359 7.635C0.00245842 6.62623 -0.106934 5.51619 0.106014 4.44525C0.318962 3.37431 0.844687 2.39056 1.61671 1.6184C2.38874 0.846231 3.37239 0.320327 4.4433 0.107185C5.5142 -0.105956 6.62426 0.0032351 7.6331 0.420953C8.64195 0.838671 9.50428 1.54616 10.1111 2.45395C10.7178 3.36174 11.0418 4.42907 11.042 5.52098C11.0407 6.98493 10.4586 8.38855 9.42354 9.42381C8.38846 10.4591 6.98495 11.0414 5.521 11.043ZM5.521 0.630979C4.55385 0.630979 3.60842 0.917773 2.80426 1.45509C2.00011 1.99241 1.37334 2.75613 1.00323 3.64966C0.633119 4.54319 0.536281 5.5264 0.724962 6.47497C0.913644 7.42354 1.37937 8.29485 2.06325 8.97873C2.74713 9.66261 3.61844 10.1283 4.56701 10.317C5.51558 10.5057 6.49879 10.4089 7.39232 10.0387C8.28586 9.66864 9.04957 9.04187 9.58689 8.23772C10.1242 7.43356 10.411 6.48813 10.411 5.52098C10.4084 4.22488 9.89232 2.98263 8.97584 2.06615C8.05935 1.14966 6.8171 0.633621 5.521 0.630979Z" fill="#00ADB5"/>
<path d="M7.21505 7.5301C7.17365 7.53022 7.13264 7.52216 7.09437 7.50637C7.0561 7.49058 7.02132 7.46738 6.99205 7.4381L5.29806 5.7451C5.26882 5.7158 5.24565 5.68102 5.22986 5.64276C5.21408 5.60449 5.20599 5.56349 5.20606 5.5221V1.9391C5.21059 1.8585 5.24581 1.78268 5.30448 1.72723C5.36315 1.67177 5.44082 1.64087 5.52156 1.64087C5.60229 1.64087 5.67996 1.67177 5.73863 1.72723C5.7973 1.78268 5.83251 1.8585 5.83705 1.9391V5.3911L7.43705 6.9911C7.48107 7.03529 7.51102 7.09152 7.52314 7.1527C7.53526 7.21388 7.52901 7.27728 7.50516 7.33491C7.48132 7.39254 7.44095 7.44183 7.38915 7.47656C7.33735 7.5113 7.27642 7.52992 7.21405 7.5301H7.21505Z" fill="#00ADB5"/>
</svg>
