<svg width="18" height="16" viewBox="0 0 18 16" fill="none" xmlns="http://www.w3.org/2000/svg">
<path d="M15.747 2.47091C15.3504 2.03898 14.8676 1.69491 14.3299 1.46085C13.7922 1.22679 13.2115 1.10792 12.625 1.11191C11.736 1.10879 10.8723 1.4074 10.175 1.95891C9.79653 2.25466 9.46245 2.60321 9.18302 2.99391C8.90302 2.60305 8.56826 2.25448 8.18902 1.95891C7.49101 1.40669 6.62606 1.10803 5.73602 1.11191C5.1496 1.10792 4.56884 1.22679 4.03113 1.46085C3.49342 1.69491 3.0107 2.03898 2.61402 2.47091C1.7967 3.38625 1.35431 4.57596 1.37502 5.80291C1.41168 7.21569 1.96203 8.56668 2.92302 9.60291C4.11481 10.9178 5.41068 12.1344 6.79802 13.2409C7.33502 13.6989 7.94402 14.2169 8.57603 14.7699C8.74304 14.9162 8.95751 14.9968 9.17952 14.9968C9.40154 14.9968 9.616 14.9162 9.78302 14.7699C10.415 14.2169 11.024 13.6979 11.561 13.2399C12.9484 12.1337 14.2442 10.9175 15.436 9.60291C16.3971 8.56673 16.9475 7.21571 16.984 5.80291C17.005 4.57609 16.563 3.3864 15.746 2.47091H15.747Z" stroke="black"/>
</svg>
