<svg width="358" height="362" viewBox="0 0 358 362" fill="none" xmlns="http://www.w3.org/2000/svg">
<path d="M66.7495 157.473H52.592V361.927H66.7495V157.473Z" fill="#B3B3B3"/>
<g style="mix-blend-mode:multiply" opacity="0.3">
<path d="M52.592 157.473V177.29C57.5021 175.985 63.6397 178.594 63.6397 185.118V341.531C63.6397 348.055 57.5021 350.746 52.592 349.36V362H66.6677V157.473H52.592Z" fill="#B3B3B3"/>
</g>
<path d="M70.8413 351.398H48.3367C47.6136 351.398 47.0273 351.983 47.0273 352.703V360.638C47.0273 361.359 47.6136 361.943 48.3367 361.943H70.8413C71.5644 361.943 72.1507 361.359 72.1507 360.638V352.703C72.1507 351.983 71.5644 351.398 70.8413 351.398Z" fill="#808080"/>
<g style="mix-blend-mode:screen" opacity="0.3">
<path d="M48.173 357.189C47.9275 357.189 47.8457 357.107 47.8457 356.862V352.785C47.8457 352.633 47.9061 352.488 48.0135 352.381C48.1209 352.274 48.2666 352.214 48.4186 352.214H69.532C69.6956 352.214 69.8593 352.296 69.8593 352.459C69.8593 352.545 69.8248 352.628 69.7634 352.689C69.702 352.75 69.6188 352.785 69.532 352.785L49.8097 354.171L48.5004 356.862C48.5004 356.949 48.4659 357.032 48.4045 357.093C48.3431 357.154 48.2599 357.189 48.173 357.189Z" fill="white"/>
</g>
<g style="mix-blend-mode:multiply" opacity="0.3">
<path d="M70.8413 351.398H70.3503V358.656C70.3509 359.054 70.1983 359.436 69.9242 359.724C69.6501 360.012 69.2753 360.185 68.8773 360.206H47.0273V360.614C47.047 360.975 47.1999 361.316 47.4566 361.572C47.7134 361.828 48.056 361.98 48.4185 362H70.8413C71.2039 361.98 71.5465 361.828 71.8032 361.572C72.06 361.316 72.2129 360.975 72.2325 360.614V352.785C72.2129 352.423 72.06 352.082 71.8032 351.826C71.5465 351.57 71.2039 351.418 70.8413 351.398Z" fill="#808080"/>
</g>
<g style="mix-blend-mode:screen" opacity="0.3">
<path d="M55.8654 341.531C55.4747 341.531 55.1 341.376 54.8238 341.101C54.5475 340.826 54.3923 340.452 54.3923 340.063V187.483C54.3918 187.086 54.5443 186.704 54.8184 186.415C55.0926 186.127 55.4673 185.955 55.8654 185.934C56.2634 185.955 56.6382 186.127 56.9123 186.415C57.1864 186.704 57.3389 187.086 57.3384 187.483V340.063C57.3384 340.452 57.1832 340.826 56.907 341.101C56.6307 341.376 56.256 341.531 55.8654 341.531Z" fill="white"/>
</g>
<path d="M115.24 113.228L63.45 61.618C61.3088 59.4843 57.8372 59.4843 55.696 61.618L3.87695 113.257C1.73573 115.39 1.73573 118.85 3.87695 120.984L55.6671 172.593C57.8083 174.727 61.2799 174.727 63.4211 172.593L115.24 120.955C117.381 118.821 117.381 115.362 115.24 113.228Z" fill="#FDAC0E"/>
<path d="M53.9832 63.3643L41.708 75.5967H77.5517L65.2765 63.3643H53.9832Z" fill="#333333"/>
<path d="M101.939 99.8987L87.6993 85.7905H31.5606L17.3213 99.8987H101.939Z" fill="#333333"/>
<path d="M3.90035 113.273C2.88565 114.309 2.31763 115.699 2.31763 117.146C2.31763 118.594 2.88565 119.984 3.90035 121.02L8.15577 125.179H111.104L115.36 121.02C116.374 119.984 116.942 118.594 116.942 117.146C116.942 115.699 116.374 114.309 115.36 113.273L111.104 109.114H8.15577L3.90035 113.273Z" fill="#333333"/>
<path d="M31.5606 148.502H87.6993L101.939 134.394H17.3213L31.5606 148.502Z" fill="#333333"/>
<path d="M65.2765 170.929L77.5517 158.696H41.708L53.9832 170.929H65.2765Z" fill="#333333"/>
<path d="M106.039 113.862L62.8714 70.8444C61.0817 69.061 58.18 69.061 56.3904 70.8444L13.2223 113.862C11.4326 115.646 11.4326 118.537 13.2223 120.321L56.3904 163.338C58.18 165.122 61.0817 165.122 62.8714 163.338L106.039 120.321C107.829 118.537 107.829 115.646 106.039 113.862Z" fill="#FDAC0E"/>
<path d="M59.6297 169.216C58.9822 169.207 58.3645 168.943 57.9112 168.482L8.07373 118.818C7.648 118.365 7.41113 117.767 7.41113 117.146C7.41113 116.526 7.648 115.928 8.07373 115.475L57.9112 65.7292C58.3796 65.2994 58.993 65.0608 59.6297 65.0608C60.2665 65.0608 60.8799 65.2994 61.3483 65.7292L111.186 115.475C111.416 115.68 111.601 115.931 111.728 116.212C111.855 116.493 111.921 116.798 111.922 117.106C111.933 117.427 111.872 117.747 111.745 118.043C111.617 118.339 111.427 118.604 111.186 118.818L61.3483 168.482C60.895 168.943 60.2773 169.207 59.6297 169.216ZM13.1475 117.106L59.6297 163.508L106.112 117.106L59.6297 70.7853L13.1475 117.106Z" fill="#333333"/>
<g style="mix-blend-mode:multiply" opacity="0.3">
<path d="M115.359 113.273L101.038 99.0831C101.665 101.624 102.049 104.218 102.184 106.83C102.33 110.934 101.636 115.024 100.144 118.851C98.653 122.678 96.3955 126.163 93.5094 129.093C89.1721 133.497 83.771 136.759 78.5336 140.021C65.7673 148.176 49.3185 149.318 34.7519 145.974C31.9294 145.368 29.1642 144.523 26.4866 143.446L55.7835 172.641C56.286 173.149 56.8848 173.552 57.5451 173.828C58.2054 174.103 58.914 174.245 59.6297 174.245C60.3455 174.245 61.0541 174.103 61.7144 173.828C62.3747 173.552 62.9735 173.149 63.476 172.641L115.359 121.02C116.374 119.984 116.942 118.594 116.942 117.146C116.942 115.699 116.374 114.309 115.359 113.273Z" fill="#FDAC0E"/>
</g>
<g style="mix-blend-mode:screen" opacity="0.3">
<path d="M10.6108 112.702C10.3347 112.401 10.1816 112.009 10.1816 111.601C10.1816 111.194 10.3347 110.801 10.6108 110.5L54.9653 66.3001C55.267 66.025 55.6611 65.8724 56.0701 65.8724C56.479 65.8724 56.8731 66.025 57.1748 66.3001C57.4566 66.614 57.6124 67.0205 57.6124 67.4418C57.6124 67.863 57.4566 68.2695 57.1748 68.5835L12.9021 112.702C12.5871 112.983 12.1792 113.138 11.7564 113.138C11.3337 113.138 10.9258 112.983 10.6108 112.702Z" fill="white"/>
</g>
<path d="M294.905 128.196H277.147V350.355H294.905V128.196Z" fill="#FDAC0E"/>
<path d="M294.25 128.196L277.147 145.24V161.877L294.905 144.18V128.196H294.25Z" fill="#333333"/>
<path d="M277.147 175.169V191.805L294.905 174.109V157.391L277.147 175.169Z" fill="#333333"/>
<path d="M277.147 205.098V221.734L294.905 204.038V187.32L277.147 205.098Z" fill="#333333"/>
<path d="M277.147 234.945V251.663L294.905 233.967V217.249L277.147 234.945Z" fill="#333333"/>
<path d="M277.147 264.874V281.592L294.905 263.895V247.178L277.147 264.874Z" fill="#333333"/>
<path d="M277.147 294.803V311.521L294.905 293.824V277.107L277.147 294.803Z" fill="#333333"/>
<path d="M277.147 324.732V341.449L294.905 323.753V307.035L277.147 324.732Z" fill="#333333"/>
<path d="M294.905 350.338V336.964L281.566 350.338H294.905Z" fill="#333333"/>
<g style="mix-blend-mode:multiply" opacity="0.5">
<path d="M277.147 128.196V140.021C278.179 139.693 279.256 139.528 280.339 139.532C283.11 139.553 285.762 140.66 287.722 142.613C289.682 144.566 290.792 147.208 290.813 149.97V326.607C290.792 329.369 289.682 332.012 287.722 333.965C285.762 335.918 283.11 337.024 280.339 337.046C279.256 337.049 278.179 336.884 277.147 336.556V350.338H294.905V128.196H277.147Z" fill="#F7931E"/>
</g>
<g style="mix-blend-mode:multiply" opacity="0.05">
<path d="M277.147 113.844L214.134 136.433V64.506L277.147 87.0953V113.844Z" fill="#FDAC0E"/>
</g>
<g style="mix-blend-mode:multiply" opacity="0.05">
<path d="M294.905 113.844L358 136.433V64.506L294.905 87.0953V113.844Z" fill="#FDAC0E"/>
</g>
<g style="mix-blend-mode:multiply" opacity="0.05">
<path d="M277.147 107.891L214.134 120.449V80.5713L277.147 93.0484V107.891Z" fill="#FDAC0E"/>
</g>
<g style="mix-blend-mode:multiply" opacity="0.05">
<path d="M294.905 107.891L358 120.449V80.5713L294.905 93.0484V107.891Z" fill="#FDAC0E"/>
</g>
<path d="M302.761 117.35V96.229C302.74 91.8234 300.974 87.6043 297.848 84.4891C294.722 81.3738 290.488 79.6142 286.067 79.5928C283.875 79.5928 281.704 80.0231 279.678 80.8591C277.653 81.6952 275.813 82.9206 274.262 84.4654C272.712 86.0102 271.483 87.8442 270.644 89.8626C269.805 91.881 269.373 94.0443 269.373 96.229V117.35H302.761Z" fill="#C1272D"/>
<g style="mix-blend-mode:screen" opacity="0.5">
<path d="M285.985 117.106C294.075 117.106 300.634 109.657 300.634 100.469C300.634 91.2815 294.075 83.8333 285.985 83.8333C277.895 83.8333 271.337 91.2815 271.337 100.469C271.337 109.657 277.895 117.106 285.985 117.106Z" fill="#333333"/>
<path d="M294.823 117.106C298.032 117.106 300.634 109.657 300.634 100.469C300.634 91.2815 298.032 83.8333 294.823 83.8333C291.615 83.8333 289.013 91.2815 289.013 100.469C289.013 109.657 291.615 117.106 294.823 117.106Z" fill="white"/>
<path d="M277.147 117.106C280.356 117.106 282.957 109.657 282.957 100.469C282.957 91.2815 280.356 83.8333 277.147 83.8333C273.938 83.8333 271.337 91.2815 271.337 100.469C271.337 109.657 273.938 117.106 277.147 117.106Z" fill="white"/>
</g>
<g style="mix-blend-mode:multiply">
<path d="M285.903 79.5928C281.504 79.6358 277.3 81.4074 274.204 84.5227C271.109 87.6379 269.373 91.8449 269.373 96.229V117.35H285.903V79.5928Z" fill="#DB670B"/>
</g>
<g style="mix-blend-mode:multiply">
<path d="M294.823 117.35V96.229C294.823 87.0954 290.895 79.5928 286.067 79.5928C281.239 79.5928 277.311 87.0954 277.311 96.229V117.35H294.823Z" fill="#F7931E"/>
</g>
<g style="mix-blend-mode:overlay">
<path d="M273.628 96.2289C273.649 92.3131 275.214 88.5625 277.985 85.786C280.756 83.0095 284.511 81.4295 288.44 81.3868H289.259C288.211 81.1572 287.14 81.0477 286.067 81.0606C282.03 81.0606 278.158 82.6587 275.304 85.5033C272.449 88.3479 270.846 92.206 270.846 96.2289V115.964H273.628V96.2289Z" fill="white"/>
</g>
<path d="M304.807 117.35H267V121.085H304.807V117.35Z" fill="#B3B3B3"/>
<g style="mix-blend-mode:screen" opacity="0.3">
<path d="M303.58 117.84H268.227V118.476H303.58V117.84Z" fill="white"/>
</g>
<g style="mix-blend-mode:multiply" opacity="0.4">
<path d="M304.807 120.042H267V121.11H304.807V120.042Z" fill="#B3B3B3"/>
</g>
<path d="M304.807 121.102H267.163C266.169 121.102 265.363 121.905 265.363 122.896V133.432C265.363 134.423 266.169 135.226 267.163 135.226H304.807C305.802 135.226 306.608 134.423 306.608 133.432V122.896C306.608 121.905 305.802 121.102 304.807 121.102Z" fill="#808080"/>
<g style="mix-blend-mode:screen" opacity="0.3">
<path d="M266.754 128.849C266.646 128.849 266.542 128.806 266.465 128.729C266.388 128.653 266.345 128.549 266.345 128.441V122.896C266.345 122.701 266.423 122.514 266.561 122.377C266.699 122.239 266.886 122.162 267.081 122.162H299.243C299.351 122.162 299.455 122.205 299.532 122.281C299.609 122.358 299.652 122.461 299.652 122.569C299.652 122.678 299.609 122.781 299.532 122.858C299.455 122.934 299.351 122.977 299.243 122.977L268.964 124.771L267.163 128.441C267.163 128.495 267.153 128.548 267.132 128.597C267.112 128.647 267.081 128.692 267.043 128.729C267.005 128.767 266.96 128.797 266.911 128.818C266.861 128.838 266.808 128.849 266.754 128.849Z" fill="white"/>
</g>
<g style="mix-blend-mode:multiply" opacity="0.3">
<path d="M304.725 121.102H304.071V130.888C304.071 131.407 303.864 131.904 303.495 132.271C303.127 132.639 302.628 132.845 302.107 132.845H265.363V133.497C265.363 133.951 265.544 134.387 265.866 134.708C266.188 135.029 266.626 135.21 267.081 135.21H304.725C304.958 135.221 305.19 135.185 305.408 135.104C305.626 135.022 305.825 134.898 305.994 134.738C306.162 134.578 306.296 134.385 306.388 134.172C306.479 133.959 306.526 133.729 306.526 133.497V122.896C306.526 122.42 306.336 121.963 305.998 121.627C305.661 121.291 305.203 121.102 304.725 121.102Z" fill="#808080"/>
</g>
<path d="M301.125 344.141H270.846V347.875H301.125V344.141Z" fill="#B3B3B3"/>
<g style="mix-blend-mode:screen" opacity="0.3">
<path d="M299.897 344.548H272.073V345.184H299.897V344.548Z" fill="white"/>
</g>
<g style="mix-blend-mode:multiply" opacity="0.4">
<path d="M301.125 346.75H270.846V347.819H301.125V346.75Z" fill="#B3B3B3"/>
</g>
<path d="M301.043 347.81H270.928C269.933 347.81 269.127 348.614 269.127 349.604V360.141C269.127 361.131 269.933 361.935 270.928 361.935H301.043C302.037 361.935 302.843 361.131 302.843 360.141V349.604C302.843 348.614 302.037 347.81 301.043 347.81Z" fill="#808080"/>
<g style="mix-blend-mode:screen" opacity="0.3">
<path d="M270.519 355.639C270.403 355.62 270.298 355.56 270.223 355.47C270.148 355.38 270.108 355.267 270.109 355.15V349.604C270.109 349.501 270.13 349.398 270.172 349.303C270.214 349.209 270.276 349.124 270.353 349.054C270.431 348.985 270.522 348.933 270.621 348.901C270.72 348.869 270.824 348.859 270.928 348.871H299.243C299.351 348.871 299.455 348.913 299.532 348.99C299.609 349.066 299.652 349.17 299.652 349.278C299.652 349.386 299.609 349.49 299.532 349.567C299.455 349.643 299.351 349.686 299.243 349.686L272.81 351.48L271.01 355.15C271.01 355.214 270.997 355.278 270.972 355.337C270.948 355.396 270.911 355.45 270.866 355.496C270.82 355.541 270.766 355.577 270.706 355.602C270.647 355.627 270.583 355.639 270.519 355.639Z" fill="white"/>
</g>
<g style="mix-blend-mode:multiply" opacity="0.3">
<path d="M300.961 347.81H300.306V357.596C300.285 358.123 300.06 358.621 299.679 358.985C299.297 359.35 298.789 359.554 298.26 359.553H269.127V360.206C269.127 360.682 269.317 361.138 269.655 361.475C269.992 361.811 270.45 362 270.928 362H300.961C301.438 362 301.896 361.811 302.234 361.475C302.572 361.138 302.761 360.682 302.761 360.206V349.604C302.761 349.129 302.572 348.672 302.234 348.336C301.896 347.999 301.438 347.81 300.961 347.81Z" fill="#808080"/>
</g>
<g style="mix-blend-mode:screen" opacity="0.3">
<path d="M281.484 331.093C281.1 331.073 280.737 330.912 280.465 330.641C280.193 330.37 280.031 330.008 280.011 329.625V146.545C280.031 146.162 280.193 145.8 280.465 145.529C280.737 145.258 281.1 145.097 281.484 145.077C281.883 145.077 282.266 145.229 282.556 145.502C282.845 145.775 283.018 146.149 283.039 146.545V329.625C283.018 330.021 282.845 330.395 282.556 330.668C282.266 330.941 281.883 331.093 281.484 331.093Z" fill="white"/>
</g>
<path d="M113.068 247.341H98.9106V361.992H113.068V247.341Z" fill="#B3B3B3"/>
<g style="mix-blend-mode:multiply" opacity="0.3">
<path d="M98.9106 247.341V288.687C103.821 287.382 109.958 289.991 109.958 296.597V341.531C109.958 348.055 103.821 350.746 98.9106 349.36V362H112.986V247.341H98.9106Z" fill="#B3B3B3"/>
</g>
<path d="M239.176 247.341H225.018V361.992H239.176V247.341Z" fill="#B3B3B3"/>
<g style="mix-blend-mode:multiply" opacity="0.3">
<path d="M225.018 247.341V288.687C229.928 287.382 236.066 289.991 236.066 296.597V341.531C236.066 348.055 229.928 350.746 225.018 349.36V362H239.094V247.341H225.018Z" fill="#B3B3B3"/>
</g>
<path d="M265.199 183.161H72.8052V285.881H265.199V183.161Z" fill="#FDAC0E"/>
<path d="M72.8052 272.703V277.025L77.2243 272.703H72.8052Z" fill="#333333"/>
<path d="M89.6632 272.703L76.4878 285.832H95.6372L108.894 272.703H89.6632Z" fill="#333333"/>
<path d="M121.333 272.703L108.158 285.832H127.389L140.565 272.703H121.333Z" fill="#333333"/>
<path d="M153.085 272.703L139.828 285.832H159.059L172.317 272.703H153.085Z" fill="#333333"/>
<path d="M184.756 272.703L171.498 285.832H190.729L203.987 272.703H184.756Z" fill="#333333"/>
<path d="M216.425 272.703L203.25 285.832H222.481L235.657 272.703H216.425Z" fill="#333333"/>
<path d="M248.178 272.703L234.92 285.832H254.152L265.199 274.823V272.703H248.178Z" fill="#333333"/>
<path d="M74.6055 198.166L89.745 183.161H72.8052V198.166H74.6055Z" fill="#333333"/>
<path d="M106.276 198.166L121.415 183.161H102.184L87.1265 198.166H106.276Z" fill="#333333"/>
<path d="M138.028 198.166L153.085 183.161H133.854L118.796 198.166H138.028Z" fill="#333333"/>
<path d="M169.698 198.166L184.837 183.161H165.606L150.467 198.166H169.698Z" fill="#333333"/>
<path d="M201.368 198.166L216.507 183.161H197.276L182.137 198.166H201.368Z" fill="#333333"/>
<path d="M233.12 198.166L248.178 183.161H228.946L213.889 198.166H233.12Z" fill="#333333"/>
<path d="M264.79 198.166L265.199 197.759V183.161H260.698L245.559 198.166H264.79Z" fill="#333333"/>
<g style="mix-blend-mode:multiply" opacity="0.5">
<path d="M265.199 285.832H72.8052L254.724 273.029L265.199 183.161V285.832Z" fill="#F7931E"/>
</g>
<g style="mix-blend-mode:screen" opacity="0.3">
<path d="M76.4878 188.625C76.4766 188.415 76.5086 188.204 76.5818 188.007C76.6549 187.809 76.7677 187.629 76.9132 187.476C77.0587 187.324 77.2339 187.202 77.4281 187.119C77.6222 187.036 77.8313 186.994 78.0426 186.994H243.513C243.947 186.994 244.363 187.166 244.67 187.472C244.977 187.777 245.15 188.192 245.15 188.625C245.129 189.043 244.947 189.437 244.642 189.726C244.337 190.014 243.933 190.175 243.513 190.174H78.0426C77.6302 190.174 77.2347 190.011 76.9432 189.721C76.6516 189.43 76.4878 189.036 76.4878 188.625Z" fill="white"/>
</g>
<path d="M243.267 351.398H220.763C220.04 351.398 219.453 351.983 219.453 352.703V360.638C219.453 361.359 220.04 361.943 220.763 361.943H243.267C243.99 361.943 244.577 361.359 244.577 360.638V352.703C244.577 351.983 243.99 351.398 243.267 351.398Z" fill="#808080"/>
<g style="mix-blend-mode:screen" opacity="0.3">
<path d="M220.599 357.189C220.354 357.189 220.272 357.107 220.272 356.862V352.785C220.272 352.633 220.332 352.488 220.44 352.381C220.547 352.274 220.693 352.214 220.845 352.214H241.958C242.122 352.214 242.285 352.296 242.285 352.459C242.285 352.545 242.251 352.628 242.189 352.689C242.128 352.75 242.045 352.785 241.958 352.785L222.236 354.171L220.926 356.862C220.926 356.949 220.892 357.032 220.831 357.093C220.769 357.154 220.686 357.189 220.599 357.189Z" fill="white"/>
</g>
<g style="mix-blend-mode:multiply" opacity="0.3">
<path d="M243.267 351.398H242.776V358.656C242.777 359.054 242.624 359.436 242.35 359.724C242.076 360.012 241.701 360.185 241.303 360.206H219.453V360.614C219.473 360.975 219.626 361.316 219.883 361.572C220.139 361.828 220.482 361.98 220.845 362H243.267C243.63 361.98 243.973 361.828 244.229 361.572C244.486 361.316 244.639 360.975 244.659 360.614V352.785C244.639 352.423 244.486 352.082 244.229 351.826C243.973 351.57 243.63 351.418 243.267 351.398Z" fill="#808080"/>
</g>
<path d="M117.16 351.398H94.6551C93.9319 351.398 93.3457 351.983 93.3457 352.703V360.638C93.3457 361.359 93.9319 361.943 94.6551 361.943H117.16C117.883 361.943 118.469 361.359 118.469 360.638V352.703C118.469 351.983 117.883 351.398 117.16 351.398Z" fill="#808080"/>
<g style="mix-blend-mode:screen" opacity="0.3">
<path d="M94.4096 357.189C94.3228 357.189 94.2395 357.154 94.1782 357.093C94.1168 357.032 94.0823 356.949 94.0823 356.862V352.785C94.1023 352.626 94.18 352.481 94.3007 352.375C94.4214 352.27 94.5766 352.213 94.7369 352.214H115.85C116.014 352.214 116.178 352.296 116.178 352.459C116.178 352.545 116.143 352.628 116.082 352.689C116.02 352.751 115.937 352.785 115.85 352.785L96.1281 354.171L94.7369 356.862C94.7369 357.107 94.6551 357.189 94.4096 357.189Z" fill="white"/>
</g>
<g style="mix-blend-mode:multiply" opacity="0.3">
<path d="M117.16 351.398H116.669V358.656C116.669 359.054 116.517 359.436 116.243 359.724C115.968 360.012 115.594 360.185 115.196 360.206H93.3457V360.614C93.3653 360.975 93.5182 361.316 93.775 361.572C94.0318 361.828 94.3743 361.98 94.7369 362H117.16C117.514 361.979 117.847 361.824 118.091 361.566C118.334 361.308 118.47 360.968 118.469 360.614V352.785C118.47 352.431 118.334 352.09 118.091 351.832C117.847 351.574 117.514 351.419 117.16 351.398Z" fill="#808080"/>
</g>
<g style="mix-blend-mode:screen" opacity="0.3">
<path d="M102.675 341.531C102.284 341.531 101.91 341.376 101.633 341.101C101.357 340.826 101.202 340.452 101.202 340.063V293.09C101.201 292.693 101.354 292.311 101.628 292.023C101.902 291.734 102.277 291.562 102.675 291.541C103.073 291.562 103.448 291.734 103.722 292.023C103.996 292.311 104.149 292.693 104.148 293.09V340.063C104.148 340.256 104.11 340.447 104.036 340.625C103.962 340.803 103.853 340.965 103.717 341.101C103.58 341.237 103.417 341.345 103.239 341.419C103.06 341.493 102.868 341.531 102.675 341.531Z" fill="white"/>
</g>
<g style="mix-blend-mode:screen" opacity="0.3">
<path d="M228.292 341.531C228.098 341.531 227.907 341.493 227.728 341.419C227.549 341.345 227.387 341.237 227.25 341.101C227.113 340.965 227.005 340.803 226.931 340.625C226.857 340.447 226.819 340.256 226.819 340.063V293.09C226.818 292.693 226.971 292.311 227.245 292.023C227.519 291.734 227.894 291.562 228.292 291.541C228.69 291.562 229.064 291.734 229.339 292.023C229.613 292.311 229.765 292.693 229.765 293.09V340.063C229.765 340.452 229.609 340.826 229.333 341.101C229.057 341.376 228.682 341.531 228.292 341.531Z" fill="white"/>
</g>
<path d="M43.754 270.175L20.2673 352.54H72.8054L49.3187 270.175H43.754Z" fill="#F7801E"/>
<path d="M37.3707 292.601L33.4426 306.383H59.6298L55.7017 292.601H37.3707Z" fill="#F2F2F2"/>
<path d="M68.7953 338.432L62.5759 316.74H30.4966L24.2771 338.432H68.7953Z" fill="#F2F2F2"/>
<path d="M86.7172 355.068H6.27344V361.967H86.7172V355.068Z" fill="#F7931E"/>
<g style="mix-blend-mode:multiply" opacity="0.3">
<path d="M86.799 355.068L81.7252 358.493L6.27344 362H86.799V355.068Z" fill="#F7801E"/>
</g>
<path d="M78.0427 355.068H15.0298L20.2672 352.54H72.8053L78.0427 355.068Z" fill="#DB670B"/>
<g style="mix-blend-mode:multiply" opacity="0.3">
<path d="M62.1668 315.272C62.085 317.718 61.8395 320.083 61.594 322.53C60.2846 332.153 56.5202 342.428 45.8817 344.956C41.8718 345.935 37.289 346.179 33.3609 344.711C29.7345 343.427 26.6111 341.028 24.4409 337.861L20.2673 352.54H72.8054L62.1668 315.272Z" fill="#F7931E"/>
</g>
<g style="mix-blend-mode:screen" opacity="0.3">
<path d="M29.2691 336.312C28.9919 336.218 28.7611 336.023 28.6241 335.765C28.4871 335.507 28.4544 335.207 28.5326 334.926L44.4086 275.802C44.4373 275.661 44.4946 275.527 44.5769 275.409C44.6592 275.29 44.7648 275.19 44.8874 275.114C45.0099 275.037 45.1467 274.987 45.2895 274.965C45.4323 274.943 45.5781 274.95 45.7179 274.986C45.9952 275.08 46.226 275.276 46.363 275.534C46.4999 275.791 46.5327 276.092 46.4545 276.373L30.5785 335.496C30.5498 335.637 30.4925 335.771 30.4102 335.89C30.3279 336.008 30.2222 336.108 30.0997 336.185C29.9772 336.261 29.8404 336.312 29.6976 336.333C29.5548 336.355 29.409 336.348 29.2691 336.312Z" fill="white"/>
</g>
<path d="M172.807 0H164.788V92.7548H172.807V0Z" fill="#808080"/>
<g style="mix-blend-mode:multiply" opacity="0.3">
<path d="M164.788 0V2.7727C167.652 2.1203 171.089 3.66975 171.089 7.50259V60.7547C171.089 64.506 167.652 66.137 164.788 65.4846V92.7222H172.807V0H164.788Z" fill="#808080"/>
</g>
<path d="M189.256 145.159V144.914V143.202C189 141.254 188.448 139.357 187.62 137.575C186.828 135.807 185.75 134.181 184.428 132.763L182.3 130.888C181.548 130.315 180.755 129.797 179.927 129.338C178.287 128.451 176.521 127.818 174.69 127.463L171.989 127.218H171.58L171.334 117.758H167.243L166.915 129.746V131.703L169.37 132.192C170.623 132.427 171.836 132.839 172.971 133.416L174.526 134.313C175.024 134.62 175.49 134.975 175.917 135.373L177.145 136.596L178.127 137.982C178.43 138.454 178.704 138.944 178.945 139.45C179.171 139.925 179.363 140.416 179.518 140.918C179.683 141.427 179.819 141.944 179.927 142.468C180.022 143.007 180.077 143.552 180.091 144.099V144.425V145.159V145.567L179.845 147.116L179.354 148.665C179.191 149.073 178.945 149.563 178.781 150.052C178.529 150.517 178.227 150.955 177.881 151.357C177.605 151.803 177.275 152.213 176.899 152.58C176.558 152.975 176.174 153.33 175.754 153.64L174.444 154.619C173.546 155.168 172.584 155.606 171.58 155.923L170.762 156.087L170.025 156.25H168.225C167.069 156.303 165.912 156.193 164.788 155.923L163.069 155.353L161.432 154.537C160.843 154.29 160.292 153.961 159.796 153.558L158.323 152.254L156.931 150.786L155.704 148.992L154.722 147.034C154.558 146.708 154.476 146.382 154.313 145.974C154.149 145.567 154.067 145.24 153.904 144.914L153.658 146.056C153.563 146.457 153.509 146.867 153.494 147.279C153.385 148.091 153.385 148.914 153.494 149.726C153.61 151.426 154.055 153.087 154.804 154.619C155.127 155.439 155.568 156.208 156.113 156.902C156.613 157.643 157.159 158.351 157.75 159.022L159.796 160.816C160.537 161.382 161.332 161.873 162.169 162.284C162.975 162.747 163.825 163.129 164.706 163.426C165.608 163.756 166.54 164.002 167.488 164.16L168.879 164.323H172.971L175.835 163.671C177.684 163.022 179.443 162.145 181.073 161.061C181.888 160.501 182.655 159.874 183.364 159.185C184.103 158.53 184.762 157.791 185.328 156.984C187.146 154.61 188.379 151.845 188.929 148.91C189.119 147.942 189.228 146.96 189.256 145.974V145.159Z" fill="#808080"/>
<g style="mix-blend-mode:multiply" opacity="0.3">
<path d="M171.416 127.136L171.171 117.677H167.079L166.833 127.136H171.416Z" fill="#808080"/>
</g>
<g style="mix-blend-mode:multiply" opacity="0.3">
<path d="M189.256 144.914V143.202C189 141.254 188.448 139.357 187.62 137.575C187.014 136.26 186.244 135.027 185.328 133.905C186.344 136.249 186.872 138.773 186.883 141.326C186.819 146.562 184.704 151.566 180.988 155.268C177.273 158.971 172.251 161.079 166.997 161.143C163.417 161.127 159.909 160.14 156.85 158.288L157.668 159.267L159.714 161.061C160.455 161.626 161.25 162.118 162.087 162.529C162.893 162.992 163.743 163.374 164.624 163.671C165.526 164.001 166.458 164.247 167.406 164.405L168.798 164.568H172.971L175.835 163.915C177.684 163.267 179.443 162.39 181.073 161.306C181.888 160.746 182.655 160.118 183.364 159.43C184.103 158.775 184.762 158.036 185.328 157.228C187.146 154.855 188.379 152.09 188.929 149.155C189.119 148.187 189.228 147.205 189.256 146.219V145.077V144.914Z" fill="#808080"/>
</g>
<path d="M177.145 117.432H160.369V125.359H177.145V117.432Z" fill="#B3B3B3"/>
<g style="mix-blend-mode:multiply" opacity="0.3">
<path d="M160.369 117.432V119.144C164.504 120.064 168.769 120.257 172.971 119.715C175.508 119.308 176.572 123.222 174.035 123.63C169.487 124.227 164.872 124.09 160.369 123.222V125.424H177.145V117.432H160.369Z" fill="#B3B3B3"/>
</g>
<path d="M168.798 119.063C182.899 119.063 194.33 107.671 194.33 93.6194C194.33 79.5673 182.899 68.1758 168.798 68.1758C154.696 68.1758 143.265 79.5673 143.265 93.6194C143.265 107.671 154.696 119.063 168.798 119.063Z" fill="#FDAC0E"/>
<path d="M168.798 68.1758C165.428 68.1864 162.092 68.8512 158.977 70.133L145.229 83.8334C143.951 86.9397 143.284 90.262 143.265 93.6194C143.265 94.4349 143.347 95.3319 143.429 96.1474L171.253 68.3389L168.798 68.1758Z" fill="#333333"/>
<path d="M184.755 73.8027C182.744 72.2119 180.511 70.9208 178.127 69.9698L145.065 102.916C146.02 105.292 147.315 107.517 148.912 109.522L184.755 73.8027Z" fill="#333333"/>
<path d="M192.693 84.8118C191.811 82.4106 190.57 80.156 189.011 78.1248L153.249 113.762C155.277 115.332 157.542 116.571 159.959 117.432L192.693 84.8118Z" fill="#333333"/>
<path d="M194.248 93.6193V91.8252L166.997 118.981H168.798C172.659 118.97 176.466 118.077 179.927 116.372L191.711 104.629C193.382 101.197 194.25 97.4331 194.248 93.6193Z" fill="#333333"/>
<path d="M157.423 84.4856C159.095 84.4856 160.451 83.1347 160.451 81.4683C160.451 79.8018 159.095 78.4509 157.423 78.4509C155.75 78.4509 154.395 79.8018 154.395 81.4683C154.395 83.1347 155.75 84.4856 157.423 84.4856Z" fill="#CCCCCC"/>
<g style="mix-blend-mode:multiply" opacity="0.3">
<path d="M159.469 79.2665C160.369 81.0606 159.55 83.8333 156.932 83.8333C156.131 83.8262 155.366 83.5037 154.804 82.9362C155.075 83.3868 155.458 83.7593 155.918 84.0167C156.377 84.2741 156.896 84.4077 157.423 84.4041C158.204 84.4041 158.953 84.0948 159.506 83.5443C160.058 82.9937 160.369 82.247 160.369 81.4683C160.376 81.0597 160.3 80.6538 160.145 80.2753C159.991 79.8968 159.76 79.5536 159.469 79.2665Z" fill="#CCCCCC"/>
</g>
<path d="M159.387 81.4683C159.387 81.8554 159.271 82.2338 159.056 82.5557C158.84 82.8775 158.533 83.1284 158.174 83.2765C157.815 83.4247 157.42 83.4634 157.039 83.3879C156.658 83.3124 156.308 83.126 156.034 82.8523C155.759 82.5785 155.572 82.2298 155.496 81.8501C155.42 81.4705 155.459 81.077 155.608 80.7193C155.757 80.3617 156.008 80.056 156.331 79.841C156.654 79.6259 157.034 79.5111 157.423 79.5111C157.68 79.5111 157.936 79.5617 158.174 79.6601C158.412 79.7584 158.629 79.9026 158.811 80.0844C158.994 80.2661 159.138 80.4819 159.237 80.7193C159.336 80.9568 159.387 81.2113 159.387 81.4683Z" fill="#B3B3B3"/>
<g style="mix-blend-mode:multiply" opacity="0.3">
<path d="M158.323 80.1636H158.896C158.714 79.9529 158.487 79.7851 158.233 79.6723C157.978 79.5595 157.701 79.5044 157.422 79.5112C157.165 79.5112 156.909 79.5618 156.671 79.6602C156.433 79.7585 156.216 79.9027 156.034 80.0844C155.851 80.2662 155.707 80.4819 155.608 80.7194C155.509 80.9568 155.458 81.2113 155.458 81.4684C155.448 81.95 155.624 82.4172 155.949 82.7732C155.915 82.4427 155.951 82.1086 156.054 81.7929C156.158 81.4771 156.328 81.1866 156.551 80.9404C156.775 80.6942 157.049 80.4977 157.354 80.3639C157.659 80.23 157.989 80.1618 158.323 80.1636Z" fill="#B3B3B3"/>
</g>
<path d="M180.173 84.4856C181.845 84.4856 183.201 83.1347 183.201 81.4683C183.201 79.8018 181.845 78.4509 180.173 78.4509C178.5 78.4509 177.145 79.8018 177.145 81.4683C177.145 83.1347 178.5 84.4856 180.173 84.4856Z" fill="#CCCCCC"/>
<g style="mix-blend-mode:multiply" opacity="0.3">
<path d="M182.219 79.2665C183.119 81.0606 182.3 83.8333 179.682 83.8333C178.881 83.8262 178.116 83.5037 177.554 82.9362C177.825 83.3868 178.208 83.7593 178.668 84.0167C179.127 84.2741 179.646 84.4077 180.173 84.4041C180.954 84.4041 181.703 84.0948 182.256 83.5443C182.808 82.9937 183.119 82.247 183.119 81.4683C183.126 81.0597 183.05 80.6538 182.895 80.2753C182.741 79.8968 182.51 79.5536 182.219 79.2665Z" fill="#CCCCCC"/>
</g>
<path d="M182.137 81.4683C182.137 81.8554 182.022 82.2338 181.806 82.5557C181.59 82.8775 181.283 83.1284 180.924 83.2765C180.566 83.4247 180.171 83.4634 179.79 83.3879C179.409 83.3124 179.059 83.126 178.784 82.8523C178.509 82.5785 178.322 82.2298 178.246 81.8501C178.171 81.4705 178.21 81.077 178.358 80.7193C178.507 80.3617 178.759 80.056 179.082 79.841C179.405 79.6259 179.784 79.5111 180.173 79.5111C180.431 79.5111 180.686 79.5617 180.924 79.6601C181.163 79.7584 181.379 79.9026 181.562 80.0844C181.744 80.2661 181.889 80.4819 181.987 80.7193C182.086 80.9568 182.137 81.2113 182.137 81.4683Z" fill="#B3B3B3"/>
<g style="mix-blend-mode:multiply" opacity="0.3">
<path d="M181.073 80.1636H181.646C181.464 79.9529 181.238 79.7851 180.983 79.6723C180.728 79.5595 180.451 79.5044 180.173 79.5112C179.915 79.5112 179.659 79.5618 179.421 79.6602C179.183 79.7585 178.966 79.9027 178.784 80.0844C178.602 80.2662 178.457 80.4819 178.358 80.7194C178.26 80.9568 178.209 81.2113 178.209 81.4684C178.198 81.95 178.374 82.4172 178.7 82.7732C178.665 82.4427 178.701 82.1086 178.805 81.7929C178.908 81.4771 179.078 81.1866 179.302 80.9404C179.526 80.6942 179.799 80.4977 180.104 80.3639C180.409 80.23 180.739 80.1618 181.073 80.1636Z" fill="#B3B3B3"/>
</g>
<path d="M157.423 108.787C159.095 108.787 160.451 107.437 160.451 105.77C160.451 104.104 159.095 102.753 157.423 102.753C155.75 102.753 154.395 104.104 154.395 105.77C154.395 107.437 155.75 108.787 157.423 108.787Z" fill="#CCCCCC"/>
<g style="mix-blend-mode:multiply" opacity="0.3">
<path d="M159.469 103.568C160.369 105.362 159.55 108.135 156.932 108.135C156.532 108.152 156.135 108.08 155.767 107.925C155.399 107.77 155.07 107.535 154.804 107.238C155.07 107.698 155.451 108.083 155.91 108.354C156.369 108.626 156.889 108.775 157.423 108.788C158.211 108.766 158.961 108.439 159.511 107.875C160.061 107.312 160.369 106.557 160.369 105.77C160.366 104.948 160.043 104.159 159.469 103.568Z" fill="#CCCCCC"/>
</g>
<path d="M157.423 107.727C158.507 107.727 159.387 106.851 159.387 105.77C159.387 104.689 158.507 103.813 157.423 103.813C156.338 103.813 155.458 104.689 155.458 105.77C155.458 106.851 156.338 107.727 157.423 107.727Z" fill="#B3B3B3"/>
<g style="mix-blend-mode:multiply" opacity="0.3">
<path d="M158.323 104.465H158.896C158.636 104.171 158.293 103.962 157.913 103.864C157.532 103.766 157.131 103.784 156.761 103.915C156.39 104.047 156.068 104.287 155.836 104.603C155.604 104.919 155.472 105.297 155.458 105.689C155.448 106.17 155.624 106.638 155.949 106.993C155.927 106.669 155.972 106.344 156.081 106.038C156.19 105.732 156.361 105.452 156.584 105.215C156.807 104.978 157.076 104.789 157.375 104.66C157.674 104.531 157.997 104.465 158.323 104.465Z" fill="#B3B3B3"/>
</g>
<path d="M180.173 108.787C181.845 108.787 183.201 107.437 183.201 105.77C183.201 104.104 181.845 102.753 180.173 102.753C178.5 102.753 177.145 104.104 177.145 105.77C177.145 107.437 178.5 108.787 180.173 108.787Z" fill="#CCCCCC"/>
<g style="mix-blend-mode:multiply" opacity="0.3">
<path d="M182.219 103.568C183.119 105.362 182.3 108.135 179.682 108.135C179.283 108.152 178.885 108.08 178.517 107.925C178.149 107.77 177.82 107.535 177.554 107.238C177.82 107.698 178.201 108.083 178.66 108.354C179.119 108.626 179.639 108.775 180.173 108.788C180.961 108.766 181.711 108.439 182.261 107.875C182.811 107.312 183.119 106.557 183.119 105.77C183.116 104.948 182.793 104.159 182.219 103.568Z" fill="#CCCCCC"/>
</g>
<path d="M182.137 105.77C182.137 106.157 182.022 106.536 181.806 106.858C181.59 107.179 181.283 107.43 180.924 107.578C180.566 107.727 180.171 107.765 179.79 107.69C179.409 107.614 179.059 107.428 178.784 107.154C178.509 106.88 178.322 106.532 178.246 106.152C178.171 105.772 178.21 105.379 178.358 105.021C178.507 104.664 178.759 104.358 179.082 104.143C179.405 103.928 179.784 103.813 180.173 103.813C180.694 103.813 181.193 104.019 181.562 104.386C181.93 104.753 182.137 105.251 182.137 105.77Z" fill="#B3B3B3"/>
<g style="mix-blend-mode:multiply" opacity="0.3">
<path d="M181.073 104.465H181.646C181.386 104.171 181.044 103.962 180.663 103.864C180.282 103.766 179.881 103.784 179.511 103.915C179.141 104.047 178.819 104.287 178.587 104.603C178.354 104.919 178.223 105.297 178.209 105.689C178.198 106.17 178.374 106.638 178.7 106.993C178.677 106.669 178.722 106.344 178.831 106.038C178.94 105.732 179.112 105.452 179.334 105.215C179.557 104.978 179.826 104.789 180.125 104.66C180.424 104.531 180.747 104.465 181.073 104.465Z" fill="#B3B3B3"/>
</g>
<g style="mix-blend-mode:multiply" opacity="0.3">
<path d="M190.811 80.7344C191.235 82.7185 191.455 84.7405 191.466 86.7691C191.402 93.8511 188.556 100.626 183.539 105.642C178.521 110.657 171.731 113.514 164.624 113.599C158.139 113.575 151.884 111.198 147.03 106.912C150.571 112.576 156.205 116.627 162.715 118.191C169.226 119.756 176.093 118.708 181.836 115.274C187.579 111.84 191.738 106.296 193.417 99.8346C195.096 93.3737 194.16 86.5142 190.811 80.7344Z" fill="#FDAC0E"/>
</g>
<g style="mix-blend-mode:screen" opacity="0.3">
<path d="M171.253 70.7037H168.798C162.67 70.7037 156.791 73.124 152.45 77.4345C148.11 81.7449 145.66 87.5941 145.638 93.7008C145.644 95.4336 145.864 97.1592 146.293 98.8385C146.5 91.9817 149.109 85.4135 153.668 80.2742C158.228 75.1348 164.449 71.7487 171.253 70.7037Z" fill="white"/>
</g>
<g style="mix-blend-mode:screen" opacity="0.3">
<path d="M167.652 60.0207C167.459 60.0207 167.267 59.9827 167.088 59.9089C166.91 59.8352 166.747 59.727 166.61 59.5907C166.474 59.4544 166.365 59.2926 166.291 59.1145C166.217 58.9364 166.179 58.7455 166.179 58.5528V7.91028C166.179 7.71751 166.217 7.52663 166.291 7.34854C166.365 7.17045 166.474 7.00863 166.61 6.87232C166.747 6.73601 166.91 6.62789 167.088 6.55412C167.267 6.48035 167.459 6.44238 167.652 6.44238C168.043 6.44238 168.417 6.59704 168.694 6.87232C168.97 7.1476 169.125 7.52097 169.125 7.91028V58.5528C169.125 58.9421 168.97 59.3154 168.694 59.5907C168.417 59.866 168.043 60.0207 167.652 60.0207Z" fill="white"/>
</g>
</svg>
