<svg width="358" height="344" viewBox="0 0 358 344" fill="none" xmlns="http://www.w3.org/2000/svg">
<g filter="url(#filter0_i_100_11981)">
<path d="M112.361 73.2815C54.5119 106.649 -41.9324 232.436 52.9429 285.288C97.8216 310.288 128.24 239.555 191.194 237.76C254.148 235.965 286.663 260.107 323.469 243.28C347.791 232.16 355.673 187.011 323.469 138.441C276.734 67.9567 191.084 27.8732 112.361 73.2815Z" fill="#F1F1FA"/>
</g>
<mask id="mask0_100_11981" style="mask-type:alpha" maskUnits="userSpaceOnUse" x="13" y="54" width="332" height="237">
<path d="M112.361 73.2815C54.5119 106.649 -41.9324 232.436 52.9429 285.288C97.8216 310.288 128.24 239.555 191.194 237.76C254.148 235.965 286.663 260.107 323.469 243.28C347.791 232.16 355.673 187.011 323.469 138.441C276.734 67.9567 191.084 27.8732 112.361 73.2815Z" fill="#F1F1FA"/>
</mask>
<g mask="url(#mask0_100_11981)">
<path d="M299.879 246.937L303.925 248.589L66.8887 314.371C-3.06229 306.941 -136.767 283.383 -111.976 248.589C-80.987 205.096 -46.1927 179 35.3564 179C133.5 179 146.585 184.343 299.879 246.937Z" fill="#BBBBD6"/>
<path d="M363.983 192C406.587 192 440.906 201.443 477 246.885L361.617 300C285.483 291.934 177.24 300.59 204.222 262.82C237.949 215.607 275.227 192 363.983 192Z" fill="#BBBBD6"/>
<path fill-rule="evenodd" clip-rule="evenodd" d="M262.527 207.744C287.562 195.746 319.432 189.825 363.983 189.825C385.44 189.825 405.004 192.201 423.803 200.409C442.614 208.622 460.486 222.598 478.703 245.533L480.426 247.702L361.982 302.226L361.387 302.162C342.431 300.154 321.458 299.185 301.013 298.272C300.421 298.245 299.83 298.219 299.239 298.193C279.453 297.309 260.219 296.451 244.019 294.711C235.672 293.815 228.081 292.68 221.598 291.174C215.142 289.673 209.65 287.774 205.588 285.283C201.514 282.784 198.627 279.523 197.966 275.264C197.315 271.065 198.927 266.49 202.452 261.556C219.444 237.769 237.455 219.759 262.527 207.744ZM264.406 211.666C240.218 223.258 222.727 240.657 205.991 264.084C202.771 268.592 201.863 272.009 202.264 274.597C202.656 277.126 204.393 279.448 207.862 281.575C211.343 283.71 216.313 285.48 222.583 286.937C228.827 288.388 236.227 289.5 244.483 290.387C260.546 292.112 279.66 292.965 299.511 293.851C300.076 293.876 300.641 293.902 301.208 293.927C321.416 294.83 342.297 295.793 361.25 297.775L473.559 246.075C456.294 224.862 439.5 212.008 422.062 204.395C404.027 196.52 385.13 194.175 363.983 194.175C319.778 194.175 288.631 200.057 264.406 211.666Z" fill="#F1F1FA"/>
<path d="M195.526 472.203H84.6603C71.2663 472.141 59.946 460.72 60.0002 447.326L61.1841 168.119C61.2209 161.689 63.8088 155.537 68.3791 151.015C72.9495 146.492 79.1283 143.969 85.5578 144L196.919 144.472C203.353 144.501 209.513 147.084 214.043 151.653C218.573 156.223 221.103 162.404 221.076 168.838L219.892 448.046C219.88 451.232 219.24 454.385 218.009 457.324C216.777 460.263 214.979 462.931 212.716 465.174C210.453 467.418 207.77 469.193 204.82 470.399C201.871 471.605 198.713 472.218 195.526 472.203Z" fill="url(#paint0_linear_100_11981)"/>
<path fill-rule="evenodd" clip-rule="evenodd" d="M221.076 168.838L219.892 448.046C219.88 451.232 219.24 454.385 218.009 457.324C216.777 460.263 214.979 462.931 212.716 465.174C210.453 467.418 207.77 469.193 204.82 470.399C201.871 471.605 198.713 472.218 195.526 472.203H84.6603C71.2663 472.141 59.9461 460.72 60.0002 447.326L61.1841 168.119C61.221 161.689 63.8089 155.537 68.3792 151.015C72.9495 146.492 79.1283 143.969 85.5579 144L196.919 144.472C203.353 144.501 209.513 147.084 214.043 151.653C218.573 156.223 221.103 162.404 221.076 168.838ZM85.5733 140.8L196.933 141.272C204.215 141.305 211.188 144.228 216.315 149.4C221.443 154.572 224.306 161.569 224.276 168.852L223.092 448.058C223.078 451.665 222.354 455.234 220.96 458.561C219.566 461.888 217.53 464.907 214.969 467.447C212.407 469.986 209.37 471.996 206.032 473.361C202.695 474.726 199.122 475.419 195.517 475.403C195.515 475.403 195.513 475.403 195.511 475.403L84.6529 475.403L84.6455 475.403C69.4846 475.333 56.739 462.473 56.8003 447.313L57.9842 168.1C58.0259 160.823 60.9552 153.859 66.1284 148.74C71.3012 143.622 78.2944 140.766 85.5715 140.8C85.5718 140.8 85.5729 140.8 85.5733 140.8C85.5735 140.8 85.573 140.8 85.5733 140.8Z" fill="#285E95"/>
<path d="M196.81 156.203L175.214 156.102C173.8 156.129 172.452 156.712 171.466 157.727C170.479 158.741 169.932 160.104 169.945 161.518V165.434C169.962 166.849 169.417 168.212 168.432 169.227C167.446 170.242 166.098 170.826 164.683 170.85L122.59 170.657C121.169 170.618 119.82 170.017 118.841 168.986C117.862 167.955 117.332 166.577 117.367 165.155V161.24C117.392 159.82 116.859 158.448 115.882 157.417C114.906 156.387 113.563 155.781 112.144 155.731H104.546L85.6504 155.646C83.4149 155.64 81.2003 156.076 79.133 156.927C77.0658 157.777 75.1863 159.027 73.602 160.604C72.0177 162.181 70.7595 164.055 69.8993 166.118C69.0392 168.182 68.5938 170.394 68.5888 172.63L67.4358 445.16C67.4255 449.662 69.1996 453.986 72.3697 457.183C75.5399 460.381 79.8478 462.193 84.3505 462.221L195.495 462.732C200.007 462.744 204.339 460.965 207.54 457.784C210.741 454.604 212.548 450.283 212.564 445.771L213.717 173.241C213.721 168.744 211.946 164.427 208.778 161.235C205.61 158.042 201.308 156.233 196.81 156.203Z" fill="#F1F1FA"/>
<path fill-rule="evenodd" clip-rule="evenodd" d="M68.5888 172.63L67.4358 445.16C67.4255 449.662 69.1996 453.986 72.3697 457.183C75.5399 460.381 79.8478 462.193 84.3505 462.221L195.495 462.732C200.007 462.744 204.339 460.965 207.54 457.784C210.741 454.604 212.548 450.283 212.564 445.771L213.717 173.241C213.721 168.744 211.946 164.427 208.778 161.235C205.61 158.042 201.308 156.233 196.81 156.203L175.214 156.102C173.8 156.129 172.452 156.712 171.466 157.727C170.479 158.741 169.932 160.104 169.945 161.518V165.434C169.962 166.849 169.417 168.212 168.432 169.227C167.446 170.242 166.098 170.826 164.683 170.85L122.59 170.657C121.169 170.618 119.82 170.017 118.841 168.986C117.862 167.955 117.332 166.577 117.367 165.155V161.24C117.392 159.82 116.859 158.448 115.882 157.417C114.906 156.387 113.563 155.781 112.144 155.731H104.546L85.6504 155.646C83.4149 155.64 81.2003 156.076 79.133 156.927C77.0658 157.777 75.1863 159.027 73.602 160.604C72.0177 162.181 70.7595 164.055 69.8993 166.118C69.0392 168.182 68.5938 170.394 68.5888 172.63ZM85.644 158.446C85.643 158.446 85.642 158.446 85.641 158.446C83.7742 158.442 81.925 158.805 80.1987 159.516C78.4714 160.227 76.9011 161.271 75.5774 162.588C74.2537 163.906 73.2024 165.472 72.4838 167.196C71.7651 168.92 71.393 170.768 71.3888 172.636L71.3887 172.642L70.2358 445.166C70.2358 445.167 70.2358 445.168 70.2358 445.169C70.2279 448.93 71.7101 452.541 74.3582 455.212C77.0069 457.884 80.6062 459.397 84.3683 459.421L195.503 459.932C199.272 459.942 202.892 458.455 205.567 455.798C208.241 453.141 209.751 449.531 209.764 445.761L209.764 445.759L210.917 173.238C210.917 173.238 210.917 173.237 210.917 173.236C210.92 169.479 209.436 165.874 206.79 163.207C204.144 160.54 200.551 159.029 196.794 159.003C196.793 159.003 196.792 159.003 196.791 159.003L175.24 158.902C174.573 158.922 173.939 159.2 173.473 159.679C173 160.164 172.739 160.817 172.745 161.494L172.745 161.506V165.42C172.765 167.568 171.937 169.637 170.44 171.178C168.938 172.724 166.886 173.613 164.732 173.65L164.701 173.65L122.546 173.457L122.514 173.456C120.352 173.397 118.3 172.483 116.81 170.914C115.33 169.354 114.524 167.273 114.567 165.124V161.215L114.568 161.19C114.58 160.504 114.322 159.841 113.85 159.344C113.388 158.856 112.756 158.565 112.086 158.531H104.533L85.644 158.446Z" fill="#285E95"/>
<path d="M158.834 217.846C158.576 217.44 152.385 207.911 141.333 207.911C130.281 207.911 124.091 217.44 123.832 217.846C122.804 219.463 123.28 221.607 124.897 222.636C126.514 223.665 128.659 223.188 129.687 221.571C129.73 221.504 134.048 214.851 141.333 214.851C148.618 214.851 152.937 221.504 152.979 221.571C154.008 223.188 156.153 223.665 157.77 222.636C159.387 221.607 159.863 219.463 158.834 217.846ZM126.239 185.01C128.634 185.01 130.576 186.952 130.576 189.347C130.576 191.743 128.634 193.685 126.239 193.685C123.844 193.685 121.902 191.743 121.902 189.347C121.902 186.952 123.844 185.01 126.239 185.01ZM152.263 189.347C152.263 191.743 154.205 193.685 156.6 193.685C158.996 193.685 160.938 191.743 160.938 189.347C160.938 186.952 158.996 185.01 156.6 185.01C154.205 185.01 152.263 186.952 152.263 189.347Z" fill="url(#paint1_linear_100_11981)"/>
<path d="M227.977 134.487C225.57 136.894 225.57 140.8 227.977 143.208C230.386 145.615 234.291 145.615 236.7 143.208C239.107 140.8 239.107 136.894 236.7 134.487C234.291 132.079 230.386 132.079 227.977 134.487Z" fill="#BBBBD6"/>
<path d="M232.339 119.82C227.258 119.82 222.478 121.8 218.887 125.394C217.476 126.804 217.476 129.089 218.887 130.498C220.296 131.909 222.581 131.909 223.991 130.498C226.219 128.268 229.184 127.04 232.339 127.04C235.493 127.04 238.459 128.268 240.686 130.498C241.392 131.204 242.318 131.556 243.239 131.556C244.165 131.556 245.086 131.204 245.791 130.498C247.201 129.089 247.201 126.804 245.791 125.394C242.2 121.8 237.42 119.82 232.339 119.82Z" fill="#BBBBD6"/>
<path d="M232.339 107.934C224.081 107.934 216.318 111.15 210.48 116.988C209.07 118.399 209.07 120.684 210.48 122.093C211.891 123.503 214.176 123.503 215.584 122.093C220.059 117.617 226.01 115.153 232.339 115.153C238.665 115.153 244.616 117.617 249.09 122.093C249.795 122.798 250.721 123.151 251.642 123.151C252.568 123.151 253.49 122.798 254.195 122.093C255.604 120.684 255.604 118.399 254.195 116.988C248.357 111.15 240.596 107.934 232.339 107.934Z" fill="#BBBBD6"/>
<path d="M262.62 108.566C254.533 100.476 243.78 96.0211 232.339 96.0211C220.898 96.0211 210.145 100.476 202.057 108.566C200.648 109.976 200.648 112.262 202.057 113.671C202.763 114.376 203.687 114.728 204.61 114.728C205.533 114.728 206.459 114.376 207.162 113.671C213.886 106.944 222.828 103.24 232.339 103.24C241.849 103.24 250.789 106.944 257.514 113.671C258.923 115.081 261.207 115.079 262.618 113.672C264.027 112.262 264.027 109.976 262.62 108.566Z" fill="#BBBBD6"/>
<path d="M232.12 127.119C231.268 127.119 230.53 126.835 229.905 126.266C229.337 125.698 228.996 124.875 228.882 123.795L225.729 90.6467L225.644 89.7946C225.644 88.0335 226.241 86.6417 227.434 85.6191C228.683 84.5397 230.246 84 232.12 84C233.995 84 235.529 84.5397 236.722 85.6191C237.972 86.6417 238.597 88.0335 238.597 89.7946L238.511 90.732L235.359 123.795C235.245 124.875 234.876 125.698 234.251 126.266C233.683 126.835 232.972 127.119 232.12 127.119ZM232.12 145.014C230.302 145.014 228.797 144.417 227.604 143.224C226.411 141.974 225.814 140.44 225.814 138.623C225.814 136.805 226.411 135.299 227.604 134.106C228.797 132.856 230.302 132.231 232.12 132.231C233.938 132.231 235.444 132.856 236.637 134.106C237.83 135.299 238.426 136.805 238.426 138.623C238.426 140.44 237.83 141.974 236.637 143.224C235.444 144.417 233.938 145.014 232.12 145.014Z" fill="url(#paint2_linear_100_11981)"/>
</g>
<defs>
<filter id="filter0_i_100_11981" x="13" y="54" width="331.769" height="242.771" filterUnits="userSpaceOnUse" color-interpolation-filters="sRGB">
<feFlood flood-opacity="0" result="BackgroundImageFix"/>
<feBlend mode="normal" in="SourceGraphic" in2="BackgroundImageFix" result="shape"/>
<feColorMatrix in="SourceAlpha" type="matrix" values="0 0 0 0 0 0 0 0 0 0 0 0 0 0 0 0 0 0 127 0" result="hardAlpha"/>
<feOffset dy="6.1386"/>
<feGaussianBlur stdDeviation="8.1848"/>
<feComposite in2="hardAlpha" operator="arithmetic" k2="-1" k3="1"/>
<feColorMatrix type="matrix" values="0 0 0 0 0 0 0 0 0 0 0 0 0 0 0 0 0 0 0.25 0"/>
<feBlend mode="normal" in2="shape" result="effect1_innerShadow_100_11981"/>
</filter>
<linearGradient id="paint0_linear_100_11981" x1="127.671" y1="148.135" x2="253.357" y2="422.234" gradientUnits="userSpaceOnUse">
<stop stop-color="#2B66A2"/>
<stop offset="1" stop-color="#2E6BA7"/>
</linearGradient>
<linearGradient id="paint1_linear_100_11981" x1="138.301" y1="185.491" x2="146.399" y2="222.289" gradientUnits="userSpaceOnUse">
<stop stop-color="#2B66A2"/>
<stop offset="1" stop-color="#2E6BA7"/>
</linearGradient>
<linearGradient id="paint2_linear_100_11981" x1="231.086" y1="84.7688" x2="261.868" y2="113.807" gradientUnits="userSpaceOnUse">
<stop stop-color="#184A7C"/>
<stop offset="1" stop-color="#2E6BA7"/>
</linearGradient>
</defs>
</svg>
