<svg width="80" height="80" viewBox="0 0 80 80" fill="none" xmlns="http://www.w3.org/2000/svg">
<ellipse cx="40" cy="40" rx="40" ry="40" fill="#5C5A5B"/>
<path opacity="0.69" fill-rule="evenodd" clip-rule="evenodd" d="M67.3226 69.2143C61.8837 74.3012 55.1249 77.7752 47.8036 79.2315C40.0444 80.7749 32.0017 79.9827 24.6926 76.9552C20.2325 75.1078 16.1678 72.4786 12.678 69.2149C12.8107 64.5513 14.1364 59.9681 16.5684 55.9188C19.9049 50.3635 25.1065 46.1744 31.2453 44.0987C28.5391 42.2316 26.5007 39.5483 25.4277 36.4405C24.3548 33.3327 24.3034 29.9633 25.2812 26.8243C26.259 23.6853 28.2147 20.941 30.8628 18.9924C33.5108 17.0437 36.7125 15.9926 40.0003 15.9926C43.2881 15.9926 46.4898 17.0437 49.1378 18.9924C51.7859 20.941 53.7416 23.6853 54.7194 26.8243C55.6972 29.9633 55.6459 33.3327 54.5729 36.4405C53.4999 39.5483 51.4615 42.2316 48.7553 44.0987C54.8941 46.1744 60.0958 50.3635 63.4323 55.9188C65.8642 59.9679 67.1898 64.5509 67.3226 69.2143Z" fill="white"/>
<path d="M51.25 34.1664H46.0833L43.3333 30.8331H36.6667L33.9167 34.1664H28.75C28.4185 34.1664 28.1005 34.2981 27.8661 34.5325C27.6317 34.767 27.5 35.0849 27.5 35.4164V47.9164C27.5 48.2479 27.6317 48.5659 27.8661 48.8003C28.1005 49.0347 28.4185 49.1664 28.75 49.1664H51.25C51.5815 49.1664 51.8995 49.0347 52.1339 48.8003C52.3683 48.5659 52.5 48.2479 52.5 47.9164V35.4164C52.5 35.0849 52.3683 34.767 52.1339 34.5325C51.8995 34.2981 51.5815 34.1664 51.25 34.1664Z" stroke="white" stroke-width="2" stroke-miterlimit="10" stroke-linecap="round" stroke-linejoin="round"/>
<path d="M40.0001 46.6668C43.2217 46.6668 45.8334 44.0551 45.8334 40.8334C45.8334 37.6118 43.2217 35.0001 40.0001 35.0001C36.7784 35.0001 34.1667 37.6118 34.1667 40.8334C34.1667 44.0551 36.7784 46.6668 40.0001 46.6668Z" stroke="white" stroke-width="2" stroke-miterlimit="10" stroke-linecap="round" stroke-linejoin="round"/>
<path d="M49.1667 37.9166C49.3968 37.9166 49.5833 37.7301 49.5833 37.4999C49.5833 37.2698 49.3968 37.0833 49.1667 37.0833C48.9365 37.0833 48.75 37.2698 48.75 37.4999C48.75 37.7301 48.9365 37.9166 49.1667 37.9166Z" stroke="white" stroke-width="2" stroke-miterlimit="10" stroke-linecap="round" stroke-linejoin="round"/>
<path d="M40 43.3333C41.3807 43.3333 42.5 42.214 42.5 40.8333C42.5 39.4526 41.3807 38.3333 40 38.3333C38.6193 38.3333 37.5 39.4526 37.5 40.8333C37.5 42.214 38.6193 43.3333 40 43.3333Z" stroke="white" stroke-width="2" stroke-miterlimit="10" stroke-linecap="round" stroke-linejoin="round"/>
</svg>
