<svg width="80" height="80" viewBox="0 0 80 80" fill="none" xmlns="http://www.w3.org/2000/svg">
<ellipse cx="40" cy="40" rx="40" ry="40" fill="#5C5A5B"/>
<path opacity="0.69" fill-rule="evenodd" clip-rule="evenodd" d="M67.3226 69.2143C61.8837 74.3012 55.1249 77.7752 47.8036 79.2315C40.0444 80.7749 32.0017 79.9827 24.6926 76.9552C20.2325 75.1078 16.1678 72.4786 12.678 69.2149C12.8107 64.5513 14.1364 59.9681 16.5684 55.9188C19.9049 50.3635 25.1065 46.1744 31.2453 44.0987C28.5391 42.2316 26.5007 39.5483 25.4277 36.4405C24.3548 33.3327 24.3034 29.9633 25.2812 26.8243C26.259 23.6853 28.2147 20.941 30.8628 18.9924C33.5108 17.0437 36.7125 15.9926 40.0003 15.9926C43.2881 15.9926 46.4898 17.0437 49.1378 18.9924C51.7859 20.941 53.7416 23.6853 54.7194 26.8243C55.6972 29.9633 55.6459 33.3327 54.5729 36.4405C53.4999 39.5483 51.4615 42.2316 48.7553 44.0987C54.8941 46.1744 60.0958 50.3635 63.4323 55.9188C65.8642 59.9679 67.1898 64.5509 67.3226 69.2143Z" fill="white"/>
</svg>
