<svg width="358" height="344" viewBox="0 0 358 344" fill="none" xmlns="http://www.w3.org/2000/svg">
<g filter="url(#filter0_i_100_11887)">
<path d="M338.89 126.169C323.27 97.6968 288.359 80.0227 256.833 87.8191C239.658 92.087 224.628 103.011 207.303 106.602C192.6 109.589 177.312 107.114 164.303 99.6397C145.287 88.6247 133.148 67.937 113.578 57.9503C86.6073 44.1679 51.4927 55.6312 32.1649 78.9474C-13.6061 134.164 14.2833 213.667 65.146 253.888C90.9488 274.292 105.776 281.359 143.078 289.674C174.764 296.77 228.66 286.44 259.679 276.824C290.698 267.208 319.219 247.41 335.533 219.319C351.848 191.228 354.518 154.639 338.89 126.169Z" fill="#F1F1FA"/>
</g>
<mask id="mask0_100_11887" style="mask-type:alpha" maskUnits="userSpaceOnUse" x="9" y="52" width="341" height="241">
<path d="M338.89 126.169C323.27 97.6968 288.359 80.0227 256.833 87.8191C239.658 92.087 224.628 103.011 207.303 106.602C192.6 109.589 177.312 107.114 164.303 99.6397C145.287 88.6247 133.148 67.937 113.578 57.9503C86.6073 44.1679 51.4927 55.6312 32.1649 78.9474C-13.6061 134.164 14.2833 213.667 65.146 253.888C90.9488 274.292 105.776 281.359 143.078 289.674C174.764 296.77 228.66 286.44 259.679 276.824C290.698 267.208 319.219 247.41 335.533 219.319C351.848 191.228 354.518 154.639 338.89 126.169Z" fill="#F1F1FA"/>
</mask>
<g mask="url(#mask0_100_11887)">
<path d="M252.036 258.156L255.743 259.67L38.4978 319.961C-25.6128 313.151 -148.154 291.56 -125.433 259.67C-97.0315 219.809 -65.1422 195.892 9.59821 195.892C99.5475 195.892 111.54 200.789 252.036 258.156Z" fill="#BBBBD6"/>
<path d="M276.877 230.719C315.923 230.719 347.377 239.373 380.458 281.022L274.708 329.702C204.931 322.31 105.725 330.243 130.454 295.626C161.365 252.355 195.531 230.719 276.877 230.719Z" fill="#BBBBD6"/>
<path fill-rule="evenodd" clip-rule="evenodd" d="M183.891 245.149C206.836 234.153 236.045 228.726 276.877 228.726C296.542 228.726 314.473 230.904 331.702 238.426C348.943 245.953 365.323 258.763 382.018 279.782L383.598 281.771L275.043 331.742L274.498 331.684C257.124 329.844 237.902 328.955 219.164 328.118C218.622 328.094 218.08 328.07 217.538 328.046C199.404 327.236 181.776 326.449 166.928 324.855C159.279 324.034 152.321 322.993 146.38 321.613C140.463 320.237 135.429 318.497 131.707 316.214C127.972 313.924 125.326 310.935 124.721 307.031C124.124 303.183 125.601 298.99 128.832 294.467C144.405 272.667 160.913 256.16 183.891 245.149ZM185.614 248.743C163.445 259.367 147.414 275.314 132.076 296.785C129.124 300.916 128.292 304.048 128.66 306.42C129.019 308.738 130.611 310.866 133.79 312.816C136.981 314.773 141.536 316.394 147.282 317.73C153.005 319.06 159.787 320.079 167.354 320.892C182.076 322.473 199.594 323.255 217.787 324.067C218.305 324.09 218.823 324.113 219.342 324.136C237.864 324.964 257.001 325.846 274.372 327.663L377.304 280.28C361.48 260.837 346.089 249.057 330.107 242.079C313.577 234.862 296.258 232.712 276.877 232.712C236.362 232.712 207.816 238.103 185.614 248.743Z" fill="#F1F1FA"/>
<path d="M126.612 173.007C126.612 173.39 126.499 173.764 126.286 174.082C126.073 174.401 125.77 174.648 125.416 174.795C125.062 174.941 124.673 174.978 124.298 174.903C123.922 174.828 123.578 174.643 123.308 174.371C123.038 174.1 122.854 173.754 122.781 173.379C122.707 173.003 122.747 172.614 122.894 172.261C123.042 171.907 123.292 171.606 123.611 171.395C123.93 171.183 124.305 171.071 124.688 171.073C124.941 171.073 125.192 171.123 125.426 171.221C125.66 171.318 125.873 171.461 126.052 171.64C126.231 171.82 126.372 172.033 126.468 172.268C126.565 172.502 126.614 172.754 126.612 173.007Z" fill="#263238"/>
<path d="M135.86 165.418C136.928 165.418 137.793 164.553 137.793 163.485C137.793 162.417 136.928 161.551 135.86 161.551C134.792 161.551 133.926 162.417 133.926 163.485C133.926 164.553 134.792 165.418 135.86 165.418Z" fill="#263238"/>
<path d="M109.758 196.846C109.759 197.228 109.647 197.603 109.436 197.922C109.225 198.242 108.923 198.491 108.57 198.639C108.217 198.787 107.828 198.826 107.452 198.753C107.076 198.679 106.731 198.496 106.46 198.225C106.188 197.955 106.003 197.611 105.928 197.235C105.852 196.86 105.89 196.471 106.036 196.117C106.182 195.763 106.43 195.46 106.748 195.247C107.067 195.035 107.441 194.921 107.824 194.921C108.077 194.92 108.328 194.969 108.563 195.065C108.798 195.161 109.011 195.303 109.191 195.481C109.37 195.66 109.513 195.873 109.61 196.107C109.707 196.341 109.758 196.592 109.758 196.846Z" fill="#263238"/>
<path d="M41.7344 289.294C37.7496 289.293 33.7766 288.863 29.884 288.011C21.8004 286.233 15.4673 283.621 10.6373 280.046C4.60557 282.151 -1.7186 283.298 -8.10533 283.446C-28.8918 284.005 -47.7077 277.507 -70.7762 258.838C-71.9371 256.357 -73.0552 253.733 -74.1306 250.965C-51.9236 268.938 -27.8836 279.377 -8.22447 278.882C-3.2026 278.75 1.78011 277.958 6.59547 276.527C1.2339 270.936 -1.46981 263.632 -1.43315 254.76C-1.43315 245.036 2.74614 240.627 6.21054 238.647C11.1139 235.834 17.8227 236.219 23.7067 239.646C30.1956 243.432 34.0541 249.829 34.0266 256.767C33.982 259.612 33.2924 262.41 32.0097 264.95C30.7269 267.49 28.8845 269.706 26.6212 271.431C23.2477 274.02 19.5919 276.218 15.7239 277.984C26.788 284.055 39.6228 286.077 52.0176 283.703C71.5484 279.826 87.8623 272.897 100.501 263.109C110.394 255.506 118.338 245.662 123.679 234.386C129.021 223.111 131.606 210.728 131.222 198.257V198.174C130.095 175.583 116.906 153.513 97.6048 141.947C80.8694 131.911 59.423 129.161 37.2252 134.202C23.4317 137.337 4.66164 144.769 -6.40063 162.394C-18.3152 181.384 -15.0891 204.947 -5.25499 215.9C1.7563 223.718 15.1923 220.895 25.998 218.649L29.554 217.916C41.1662 215.606 88.2839 193.509 88.4672 193.445L89.4662 197.203C88.7055 197.469 42.376 220.024 30.443 222.398C29.3066 222.618 28.1334 222.865 26.9328 223.122C15.0182 225.624 0.115761 228.74 -8.65523 218.97C-14.9975 211.895 -18.526 201.685 -18.5902 190.219C-18.6604 179.563 -15.7801 169.095 -10.2683 159.974C1.64632 141.03 21.5804 133.084 36.217 129.73C59.5605 124.432 82.1983 127.365 99.951 137.978C120.481 150.351 134.503 173.878 135.75 197.909C135.851 199.137 137.079 216.66 127.703 236.494C122.076 248.373 113.7 258.741 103.269 266.738C90.0619 276.967 73.1157 284.152 52.8608 288.203C49.1968 288.931 45.47 289.296 41.7344 289.294ZM13.5884 241.351C11.8019 241.323 10.0389 241.762 8.47432 242.625C5.00075 244.614 3.15857 248.821 3.13107 254.796C3.13107 263.347 5.77979 269.955 11.3797 274.868C15.8273 273.099 20.0094 270.724 23.8075 267.811C25.5187 266.514 26.9146 264.847 27.8906 262.934C28.8667 261.022 29.3978 258.914 29.444 256.767C29.444 251.479 26.4562 246.566 21.3879 243.615C19.0316 242.189 16.3418 241.409 13.5884 241.351Z" fill="#0C6CCC"/>
<path fill-rule="evenodd" clip-rule="evenodd" d="M10.6373 280.046C15.4673 283.621 21.8004 286.233 29.884 288.011C33.7766 288.863 37.7496 289.293 41.7344 289.294C45.47 289.296 49.1968 288.931 52.8608 288.203C73.1157 284.152 90.0619 276.967 103.269 266.738C113.7 258.741 122.076 248.373 127.703 236.494C137.079 216.66 135.851 199.137 135.75 197.909C134.503 173.878 120.481 150.351 99.951 137.978C82.1983 127.365 59.5605 124.432 36.217 129.73C21.5804 133.084 1.64632 141.03 -10.2683 159.974C-15.7801 169.095 -18.6604 179.563 -18.5902 190.219C-18.526 201.685 -14.9975 211.895 -8.65523 218.97C0.115761 228.74 15.0182 225.624 26.9328 223.122C28.1334 222.865 29.3066 222.618 30.443 222.398C40.6403 220.369 75.9557 203.603 86.4881 198.603C88.2808 197.752 89.3555 197.242 89.4662 197.203L88.4672 193.445C88.458 193.448 88.3317 193.507 88.0984 193.615C87.9766 193.671 87.8258 193.741 87.6473 193.824C81.3227 196.756 40.2831 215.782 29.554 217.916L25.998 218.649L25.891 218.671C15.1038 220.913 1.73319 223.692 -5.25499 215.9C-15.0891 204.947 -18.3152 181.384 -6.40063 162.394C4.66164 144.769 23.4317 137.337 37.2252 134.202C59.423 129.161 80.8694 131.911 97.6048 141.947C116.906 153.513 130.095 175.583 131.222 198.174V198.257C131.606 210.728 129.021 223.111 123.679 234.386C118.338 245.662 110.394 255.506 100.501 263.109C87.8623 272.897 71.5484 279.826 52.0176 283.703C39.7864 286.046 27.1269 284.107 16.163 278.222C16.0164 278.144 15.87 278.064 15.7239 277.984C15.875 277.915 16.0258 277.845 16.1763 277.775C19.8772 276.046 23.3794 273.918 26.6212 271.431C28.8845 269.706 30.7269 267.49 32.0097 264.95C33.2924 262.41 33.982 259.612 34.0266 256.767C34.0541 249.829 30.1956 243.432 23.7067 239.646C17.8227 236.219 11.1139 235.834 6.21054 238.647C2.74614 240.627 -1.43315 245.036 -1.43315 254.76C-1.4691 263.46 1.1304 270.653 6.28753 276.201C6.38918 276.31 6.49183 276.419 6.59547 276.527C6.45167 276.57 6.30771 276.612 6.16361 276.653C1.48246 278.005 -3.35257 278.754 -8.22447 278.882C-27.6986 279.372 -51.4716 269.134 -73.5033 251.471C-73.7126 251.303 -73.9217 251.134 -74.1306 250.965C-74.0329 251.217 -73.9349 251.467 -73.8365 251.716C-72.8517 254.209 -71.8316 256.583 -70.7762 258.838C-47.7077 277.507 -28.8918 284.005 -8.10533 283.446C-1.7186 283.298 4.60557 282.151 10.6373 280.046ZM-70.4529 258.585C-47.4736 277.164 -28.7653 283.602 -8.11609 283.047L-8.1146 283.047C-1.76962 282.899 4.51321 281.76 10.5055 279.669L10.7052 279.599L10.8752 279.725C15.6459 283.255 21.9211 285.85 29.9695 287.62C33.834 288.466 37.7785 288.893 41.7347 288.894C45.4441 288.896 49.1447 288.534 52.7829 287.811C72.9916 283.769 89.8766 276.604 103.024 266.422L103.025 266.421C113.406 258.462 121.742 248.144 127.341 236.323C136.675 216.579 135.449 199.136 135.351 197.941L135.35 197.929C134.111 174.03 120.16 150.625 99.7455 138.321C82.095 127.769 59.5657 124.841 36.3059 130.12C21.7135 133.464 1.90459 141.373 -9.92783 160.184C-15.4003 169.241 -18.2599 179.635 -18.1902 190.217C-18.1265 201.605 -14.6216 211.715 -8.35757 218.703C-4.07273 223.476 1.71997 225.12 7.96813 225.248C14.2255 225.376 20.8838 223.983 26.8499 222.73C28.0506 222.474 29.2267 222.226 30.367 222.005C30.3663 222.005 30.3657 222.005 30.365 222.005M-70.4529 258.585C-71.3986 256.56 -72.3161 254.439 -73.2053 252.22C-51.2895 269.646 -27.6584 279.772 -8.21441 279.282C-3.15748 279.149 1.86046 278.352 6.70945 276.91L7.33817 276.723L6.88417 276.25C1.60463 270.745 -1.06945 263.545 -1.03315 254.761V254.76C-1.03315 245.177 3.07089 240.902 6.409 238.995C11.1607 236.268 17.7149 236.619 23.5051 239.992C29.8825 243.712 33.6526 249.983 33.6266 256.763C33.5827 259.547 32.9077 262.285 31.6526 264.77C30.3972 267.256 28.5939 269.425 26.3787 271.113L26.3777 271.114C23.0281 273.684 19.3983 275.867 15.5577 277.62L14.8326 277.951L15.5315 278.335C26.6772 284.45 39.6066 286.487 52.0929 284.096L52.0955 284.095C71.6725 280.209 88.0476 273.26 100.746 263.425C110.688 255.784 118.673 245.89 124.041 234.558C129.408 223.227 132.007 210.783 131.622 198.251V198.164L131.622 198.155C130.488 175.43 117.227 153.239 97.8104 141.604C80.972 131.506 59.4169 128.753 37.1366 133.812C23.3012 136.956 4.40585 144.425 -6.73942 162.181C-12.7451 171.753 -14.9336 182.476 -14.3829 192.184C-13.8327 201.885 -10.5444 210.608 -5.55262 216.167C-1.93661 220.199 3.31366 221.457 8.94926 221.448C14.5396 221.439 20.5901 220.182 25.9523 219.067L26.0787 219.041L29.632 218.308C29.6325 218.308 29.6329 218.308 29.6333 218.308C32.5779 217.722 37.7326 215.894 43.7796 213.499C49.8393 211.099 56.8284 208.116 63.4573 205.205C70.0867 202.293 76.3585 199.452 80.9841 197.335C83.297 196.276 85.1985 195.398 86.5274 194.783C87.0384 194.547 87.4647 194.349 87.7972 194.195L88.0712 194.068C88.1178 194.047 88.1617 194.026 88.2027 194.007L88.9921 196.977C88.895 197.022 88.7769 197.077 88.639 197.142C88.2542 197.322 87.7109 197.58 87.0296 197.903C86.8069 198.009 86.5694 198.122 86.3177 198.241C85.029 198.853 83.3695 199.641 81.4302 200.556C76.7943 202.745 70.561 205.662 63.9791 208.646C57.3966 211.629 50.4683 214.677 44.442 217.126C38.4053 219.58 33.3075 221.42 30.367 222.005M13.5947 240.951L13.5968 240.951C16.4192 241.01 19.1765 241.81 21.5921 243.271C26.767 246.285 29.844 251.321 29.844 256.767V256.775C29.7964 258.982 29.2504 261.15 28.2469 263.116C27.2436 265.082 25.8089 266.796 24.05 268.129C24.0497 268.129 24.0494 268.129 24.0491 268.13L23.8075 267.811C20.0094 270.724 15.8273 273.099 11.3797 274.868C5.77979 269.955 3.13107 263.347 3.13107 254.796C3.15857 248.821 5.00075 244.614 8.47432 242.625C10.0389 241.762 11.8019 241.323 13.5884 241.351C16.3418 241.409 19.0316 242.189 21.3879 243.615C26.4562 246.566 29.444 251.479 29.444 256.767C29.3978 258.914 28.8667 261.022 27.8906 262.934C26.9146 264.847 25.5187 266.514 23.8075 267.811" fill="#0C6CCC"/>
<path d="M14.2849 282.411C13.668 282.238 13.0874 281.956 12.571 281.577C11.2674 280.753 10.0267 279.834 8.85918 278.827C7.67258 277.848 6.56618 276.775 5.55059 275.62C5.09356 275.166 4.72933 274.627 4.47827 274.034C4.53326 274.034 4.96401 274.584 5.78887 275.409C6.61373 276.234 7.78686 277.333 9.1433 278.479C10.4997 279.625 11.792 280.614 12.7452 281.284C13.2845 281.622 13.799 281.999 14.2849 282.411Z" fill="#263238"/>
<path d="M19.0873 279.735C18.3727 279.695 17.6724 279.518 17.0251 279.212C15.4365 278.558 13.9539 277.672 12.6259 276.582C11.2921 275.504 10.0893 274.274 9.04234 272.916C8.57389 272.369 8.19637 271.75 7.92419 271.083C7.97918 271.083 8.43744 271.706 9.2898 272.687C10.4033 273.962 11.6304 275.134 12.9558 276.188C14.257 277.253 15.6818 278.158 17.1993 278.882C18.3174 279.469 19.1056 279.661 19.0873 279.735Z" fill="#263238"/>
<path d="M115.742 249.948C115.371 250.661 114.922 251.331 114.404 251.946C112.05 255.023 109.336 257.808 106.321 260.24C105.722 260.775 105.064 261.239 104.359 261.624C104.897 261.051 105.476 260.518 106.092 260.03C107.191 259.049 108.685 257.665 110.262 256.061C111.838 254.457 113.176 252.908 114.129 251.781C114.622 251.131 115.161 250.519 115.742 249.948Z" fill="white"/>
<path d="M153.457 199.797L145.309 157.912C145.127 157.117 144.643 156.424 143.959 155.979C143.275 155.534 142.445 155.372 141.644 155.528C140.843 155.684 140.134 156.145 139.667 156.814C139.2 157.483 139.011 158.307 139.141 159.113L139.517 161.019L122.662 165.162C120.875 165.6 119.222 166.47 117.85 167.696C116.477 168.921 115.426 170.465 114.789 172.191L104.625 174.694C102.934 175.11 101.477 176.181 100.574 177.671C99.6722 179.161 99.3985 180.948 99.8134 182.64L100.73 186.306L90.7858 188.762C90.1268 188.924 89.5063 189.215 88.9597 189.617C88.4131 190.02 87.951 190.526 87.6 191.107C87.2489 191.687 87.0157 192.332 86.9136 193.003C86.8116 193.674 86.8427 194.358 87.0052 195.017C87.1676 195.676 87.4583 196.297 87.8606 196.843C88.2629 197.39 88.7689 197.852 89.3497 198.203C89.9306 198.554 90.5749 198.787 91.2459 198.889C91.9169 198.991 92.6014 198.96 93.2603 198.798L103.214 196.351L103.919 199.219C104.336 200.911 105.406 202.368 106.896 203.27C108.386 204.172 110.174 204.446 111.865 204.031L122.213 201.483V201.401C123.569 202.56 125.181 203.38 126.917 203.793C128.652 204.206 130.461 204.199 132.194 203.774L147.151 200.108L147.325 201.025C147.507 201.82 147.991 202.513 148.675 202.958C149.359 203.403 150.189 203.565 150.99 203.409C151.791 203.253 152.5 202.792 152.967 202.123C153.434 201.454 153.623 200.63 153.493 199.824L153.457 199.797Z" fill="#0C6CCC"/>
<path d="M153.457 199.797C153.52 200.026 153.548 200.264 153.539 200.502C153.527 201.212 153.275 201.897 152.824 202.445C152.453 202.889 151.97 203.225 151.425 203.418C150.881 203.611 150.294 203.655 149.726 203.545C149.171 203.427 148.657 203.164 148.237 202.782C147.817 202.401 147.505 201.914 147.334 201.373C147.215 200.97 147.16 200.557 147.069 200.136L147.188 200.209L136.19 202.959L132.899 203.784C131.734 204.118 130.528 204.285 129.316 204.278C126.662 204.228 124.109 203.256 122.094 201.529L122.369 201.355V201.428L122.414 201.602H122.24C118.748 202.455 115.092 203.435 111.16 204.306C110.111 204.44 109.045 204.328 108.048 203.978C107.05 203.628 106.148 203.05 105.413 202.29C104.651 201.505 104.094 200.545 103.791 199.494C103.507 198.449 103.269 197.405 103.003 196.351L103.25 196.506L94.855 198.624C94.131 198.779 93.4436 198.999 92.6646 199.118C91.6718 199.239 90.6651 199.081 89.7576 198.66C88.8502 198.24 88.0782 197.575 87.5285 196.739C86.9789 195.904 86.6734 194.931 86.6465 193.932C86.6196 192.932 86.8723 191.945 87.3763 191.081C87.8009 190.381 88.3724 189.782 89.0512 189.324C89.7301 188.867 90.5001 188.563 91.3081 188.432L100.675 186.132L100.51 186.397C100.327 185.637 100.134 184.848 99.9325 184.051C99.6951 183.233 99.5265 182.396 99.4284 181.549C99.303 179.802 99.858 178.075 100.977 176.728C101.524 176.066 102.193 175.516 102.948 175.106C103.699 174.72 104.502 174.443 105.331 174.281L114.734 171.972L114.587 172.109C115.484 169.711 117.151 167.677 119.326 166.326C120.387 165.68 121.544 165.206 122.754 164.924L126.236 164.062L139.471 160.827L139.324 161.056C139.223 160.561 139.132 160.057 139.031 159.562C138.9 159.057 138.866 158.531 138.93 158.013C139.012 157.501 139.213 157.014 139.517 156.593C139.821 156.173 140.219 155.829 140.679 155.589C141.14 155.349 141.65 155.221 142.169 155.214C142.688 155.207 143.201 155.321 143.668 155.548C144.125 155.757 144.528 156.068 144.846 156.457C145.164 156.846 145.388 157.303 145.501 157.793L147.508 168.159C148.755 174.666 149.846 180.348 150.744 185.05C151.642 189.752 152.329 193.418 152.815 195.957C153.044 197.203 153.218 198.165 153.337 198.834C153.392 199.155 153.438 199.393 153.466 199.577C153.474 199.662 153.474 199.748 153.466 199.833C153.435 199.754 153.414 199.671 153.402 199.586C153.402 199.403 153.31 199.164 153.246 198.853L152.65 195.975C152.146 193.445 151.413 189.761 150.478 185.096C149.543 180.431 148.434 174.721 147.151 168.223C146.509 164.972 145.828 161.523 145.107 157.876C145.006 157.444 144.809 157.04 144.529 156.696C144.25 156.351 143.896 156.075 143.494 155.887C143.08 155.69 142.626 155.593 142.167 155.603C141.709 155.614 141.259 155.731 140.855 155.947C140.45 156.163 140.102 156.47 139.837 156.845C139.573 157.22 139.4 157.651 139.333 158.105C139.268 158.58 139.3 159.063 139.425 159.525C139.526 160.02 139.626 160.515 139.718 161.019V161.203L139.535 161.248L126.31 164.52C124.027 165.153 121.571 165.437 119.527 166.729C117.426 168.029 115.814 169.988 114.945 172.301L114.899 172.411H114.789L105.386 174.73C104.595 174.88 103.829 175.142 103.113 175.509C102.413 175.895 101.791 176.408 101.28 177.021C100.232 178.277 99.7125 179.89 99.8316 181.522C99.9259 182.344 100.092 183.157 100.327 183.95C100.519 184.757 100.721 185.545 100.904 186.306L100.959 186.516L100.739 186.571L91.4273 188.872C90.6738 188.981 89.9541 189.257 89.3201 189.679C88.6861 190.1 88.1537 190.657 87.7612 191.31C87.3086 192.101 87.0845 193.002 87.1139 193.913C87.1433 194.824 87.425 195.709 87.9277 196.469C88.4304 197.229 89.1343 197.835 89.9609 198.218C90.7875 198.602 91.7045 198.749 92.6096 198.642C93.3061 198.55 94.0393 198.321 94.7542 198.156L103.14 196.103L103.342 196.057L103.388 196.25C103.653 197.304 103.892 198.367 104.167 199.384C104.45 200.373 104.973 201.276 105.688 202.015C106.379 202.732 107.227 203.278 108.166 203.61C109.104 203.943 110.107 204.052 111.096 203.93C114.954 203.069 118.675 202.097 122.149 201.263L122.03 201.474V201.401L121.901 200.878L122.304 201.226C124.261 202.903 126.74 203.846 129.316 203.894C130.5 203.904 131.679 203.743 132.817 203.417L136.107 202.62L147.105 199.953H147.206V200.053C147.298 200.475 147.353 200.906 147.463 201.281C147.573 201.652 147.753 201.997 147.994 202.299C148.442 202.843 149.057 203.224 149.745 203.38C150.184 203.471 150.638 203.465 151.075 203.363C151.512 203.262 151.922 203.066 152.277 202.791C152.631 202.516 152.922 202.167 153.129 201.769C153.336 201.371 153.454 200.932 153.475 200.484C153.48 200.255 153.474 200.025 153.457 199.797Z" fill="#263238"/>
<path d="M147.481 200.017C147.362 200.017 145.4 191.346 143.1 180.605C140.8 169.863 139.022 161.12 139.15 161.092C139.278 161.065 141.23 169.753 143.54 180.504C145.849 191.255 147.609 199.989 147.481 200.017Z" fill="#263238"/>
<path d="M122.177 201.373C122.057 201.373 120.344 194.875 118.272 186.801C116.201 178.726 114.689 172.136 114.808 172.136C114.927 172.136 116.641 178.635 118.712 186.727C120.783 194.82 122.296 201.373 122.177 201.373Z" fill="#263238"/>
<path d="M103.196 196.351C102.523 194.762 102.034 193.101 101.738 191.401C101.3 189.737 100.963 188.048 100.73 186.342C101.398 187.935 101.883 189.599 102.178 191.301C102.617 192.962 102.957 194.649 103.196 196.351Z" fill="#263238"/>
<path d="M112.232 174.602C112.232 174.666 111.252 174.813 109.675 175.143C108.887 175.308 107.952 175.518 106.926 175.802C105.822 176.086 104.756 176.505 103.755 177.049C102.737 177.511 101.934 178.343 101.509 179.377C101.303 180.28 101.285 181.216 101.454 182.126C101.656 183.712 101.922 184.683 101.857 184.702C101.485 183.902 101.24 183.048 101.133 182.172C100.925 181.218 100.925 180.23 101.133 179.276C101.297 178.698 101.614 178.176 102.05 177.764C102.498 177.334 103 176.964 103.544 176.664C104.575 176.095 105.679 175.67 106.825 175.399C107.87 175.133 108.823 174.959 109.574 174.831C110.446 174.637 111.34 174.56 112.232 174.602Z" fill="white"/>
<path d="M136.337 163.485C136.062 163.618 135.768 163.707 135.466 163.75C134.907 163.888 134.082 164.08 133.065 164.3L125.128 165.968C123.689 166.268 122.297 166.755 120.985 167.417C119.922 167.969 118.986 168.737 118.235 169.671C117.565 170.554 117.098 171.574 116.87 172.659C116.822 172.352 116.844 172.039 116.934 171.742C117.136 170.923 117.5 170.154 118.006 169.479C118.752 168.479 119.705 167.653 120.802 167.059C122.136 166.349 123.565 165.833 125.045 165.529C128.161 164.859 130.975 164.365 133.028 163.989C134.045 163.805 134.861 163.668 135.457 163.576C135.746 163.514 136.041 163.483 136.337 163.485Z" fill="white"/>
<path d="M98.9885 188.624C98.457 188.985 97.8535 189.226 97.2196 189.33C96.074 189.642 94.4701 189.77 92.7379 190.137C91.9378 190.299 91.1638 190.571 90.4374 190.943C89.851 191.248 89.3209 191.651 88.8702 192.135C88.4811 192.616 88.146 193.138 87.8712 193.693C87.9115 193.037 88.177 192.415 88.6228 191.933C89.068 191.381 89.6157 190.921 90.2358 190.577C90.9837 190.148 91.7939 189.839 92.6371 189.66C94.4059 189.284 96.019 189.211 97.1463 188.982C98.2736 188.753 98.961 188.542 98.9885 188.624Z" fill="white"/>
<path d="M143.201 156.354C143.201 156.428 142.862 156.418 142.376 156.547C141.757 156.715 141.2 157.058 140.773 157.537C140.36 158.034 140.108 158.644 140.048 159.287C139.993 159.782 140.048 160.112 139.984 160.121C139.92 160.13 139.755 159.837 139.728 159.278C139.697 158.536 139.945 157.81 140.424 157.243C140.911 156.686 141.587 156.327 142.321 156.235C142.88 156.171 143.21 156.299 143.201 156.354Z" fill="white"/>
<path d="M429.075 289.483C427.244 289.488 425.422 289.225 423.667 288.704C406.254 283.489 407.17 270.923 407.876 260.823C408.554 251.411 408.582 245.49 400.819 242.576C390.545 238.726 386.32 242.466 379.913 248.13C372.288 254.875 362.811 263.27 339.807 259.861C327.892 258.092 308.645 251.796 285.082 231.834C276.679 224.767 268.911 216.977 261.867 208.555L265.423 205.695C265.78 206.135 300.965 249.495 340.476 255.343C361.372 258.44 369.612 251.145 376.889 244.711C383.414 238.937 389.573 233.484 402.423 238.296C413.769 242.557 413.063 252.428 412.431 261.144C411.698 271.345 411.065 280.153 424.978 284.323C440.65 289.015 461.262 264.16 473.553 249.349C477.952 244.06 481.004 240.229 483.442 238.241L486.888 240.99C485.367 242.823 481.132 247.406 477.063 252.272C464.544 267.386 446.195 289.483 429.075 289.483Z" fill="#0C6CCC"/>
<path d="M364.47 253.4C364.47 253.4 364.287 253.574 363.92 253.803C363.406 254.143 362.871 254.449 362.316 254.719C360.484 255.616 358.548 256.281 356.552 256.699C354.557 257.109 352.518 257.267 350.484 257.166C349.87 257.134 349.258 257.07 348.651 256.974C348.425 256.955 348.202 256.902 347.991 256.818C347.991 256.745 348.963 256.818 350.503 256.818C354.524 256.838 358.505 256.014 362.188 254.399C363.59 253.757 364.434 253.29 364.47 253.4Z" fill="white"/>
<path d="M265.909 209.563C264.969 210.597 263.657 211.215 262.262 211.282C260.866 211.349 259.501 210.86 258.467 209.921L250.42 202.588L257.514 194.789L265.551 202.121C266.585 203.061 267.204 204.373 267.271 205.768C267.338 207.164 266.848 208.529 265.909 209.563Z" fill="#0C6CCC"/>
<path d="M265.909 209.563C266.179 209.168 266.427 208.758 266.651 208.335C267.217 207.139 267.306 205.772 266.899 204.513C266.623 203.642 266.12 202.861 265.441 202.249L263.013 200.077C261.299 198.519 259.393 196.805 257.367 194.981H257.679L254.132 198.886L250.585 202.781V202.469L256.194 207.574L258.595 209.783C259.266 210.398 260.088 210.825 260.978 211.02C262.272 211.304 263.625 211.084 264.763 210.406C265.165 210.142 265.55 209.854 265.918 209.545C265.625 209.938 265.261 210.273 264.846 210.535C263.69 211.296 262.28 211.569 260.923 211.295C259.973 211.11 259.09 210.673 258.366 210.03C257.605 209.352 256.799 208.619 255.937 207.858L250.282 202.753L250.117 202.607L250.273 202.442L253.811 198.537L257.358 194.651L257.504 194.486L257.669 194.633L263.279 199.775L265.68 201.983C266.392 202.642 266.911 203.481 267.183 204.412C267.581 205.734 267.443 207.16 266.798 208.381C266.581 208.829 266.279 209.23 265.909 209.563Z" fill="#263238"/>
<path d="M225.253 165.534L211.377 154.059C211.118 153.845 210.904 153.582 210.746 153.285C210.589 152.988 210.492 152.663 210.461 152.329C210.429 151.994 210.464 151.657 210.563 151.336C210.662 151.015 210.823 150.716 211.038 150.457C211.252 150.198 211.515 149.984 211.812 149.827C212.109 149.67 212.434 149.573 212.768 149.541C213.103 149.51 213.44 149.545 213.761 149.644C214.082 149.743 214.381 149.904 214.639 150.118L228.506 161.593L225.253 165.534Z" fill="#0C6CCC"/>
<path d="M212.201 182.297L198.344 170.822C198.084 170.609 197.869 170.346 197.711 170.049C197.553 169.753 197.455 169.428 197.423 169.093C197.391 168.759 197.424 168.421 197.523 168.1C197.621 167.778 197.782 167.48 197.995 167.22C198.209 166.96 198.472 166.745 198.769 166.587C199.066 166.43 199.391 166.332 199.726 166.301C200.061 166.269 200.398 166.304 200.72 166.404C201.041 166.503 201.339 166.666 201.597 166.881L215.473 178.347L212.201 182.297Z" fill="#0C6CCC"/>
<g opacity="0.6">
<path opacity="0.6" d="M225.253 165.534L211.377 154.059C211.118 153.845 210.904 153.582 210.746 153.285C210.589 152.988 210.492 152.663 210.461 152.329C210.429 151.994 210.464 151.657 210.563 151.336C210.662 151.015 210.823 150.716 211.038 150.457C211.252 150.198 211.515 149.984 211.812 149.827C212.109 149.67 212.434 149.573 212.768 149.541C213.103 149.51 213.44 149.545 213.761 149.644C214.082 149.743 214.381 149.904 214.639 150.118L228.506 161.593L225.253 165.534Z" fill="white"/>
</g>
<g opacity="0.6">
<path opacity="0.6" d="M212.201 182.297L198.344 170.822C198.084 170.609 197.869 170.346 197.711 170.049C197.553 169.753 197.455 169.428 197.423 169.093C197.391 168.759 197.424 168.421 197.523 168.1C197.621 167.778 197.782 167.48 197.995 167.22C198.209 166.96 198.472 166.745 198.769 166.587C199.066 166.43 199.391 166.332 199.726 166.301C200.061 166.269 200.398 166.304 200.72 166.404C201.041 166.503 201.339 166.666 201.597 166.881L215.473 178.347L212.201 182.297Z" fill="white"/>
</g>
<path d="M225.253 165.534C225.316 165.429 225.386 165.328 225.463 165.232L226.087 164.425L228.405 161.501V161.694L221.889 156.396L217.81 153.042L215.62 151.209L214.493 150.292C214.149 149.997 213.724 149.811 213.274 149.761C212.893 149.712 212.506 149.759 212.148 149.896C211.79 150.034 211.471 150.258 211.221 150.549C210.979 150.833 210.807 151.171 210.721 151.534C210.635 151.898 210.637 152.276 210.726 152.639C210.814 152.98 210.984 153.295 211.221 153.555C211.479 153.826 211.758 154.078 212.055 154.307L213.778 155.736L219.717 160.731L223.74 164.159L224.84 165.076C224.98 165.188 225.112 165.311 225.234 165.442C225.097 165.363 224.968 165.271 224.849 165.167L223.749 164.251C222.732 163.435 221.339 162.326 219.653 160.961L213.549 156.002L211.789 154.563C211.468 154.316 211.162 154.05 210.872 153.766C210.485 153.347 210.237 152.817 210.164 152.25C210.091 151.683 210.197 151.108 210.466 150.604C210.735 150.1 211.154 149.693 211.666 149.438C212.177 149.184 212.755 149.094 213.32 149.183C213.855 149.252 214.361 149.472 214.777 149.816L215.895 150.732L218.076 152.565L222.136 155.947L228.552 161.346L228.662 161.437L228.57 161.538L226.087 164.434L225.427 165.167C225.384 165.296 225.326 165.42 225.253 165.534Z" fill="#263238"/>
<path d="M212.201 182.297C212.264 182.189 212.337 182.087 212.421 181.994C212.586 181.775 212.788 181.509 213.045 181.188L215.363 178.264V178.457L208.847 173.15L204.768 169.805L202.578 167.972L201.451 167.055C201.1 166.765 200.674 166.581 200.223 166.524C199.841 166.479 199.455 166.528 199.097 166.667C198.739 166.806 198.42 167.03 198.17 167.321C197.926 167.605 197.755 167.943 197.671 168.306C197.586 168.67 197.591 169.049 197.684 169.411C197.77 169.751 197.937 170.065 198.17 170.327C198.432 170.596 198.714 170.844 199.013 171.07L200.727 172.509L206.675 177.504L210.698 180.931L211.798 181.848C211.94 181.955 212.069 182.078 212.183 182.214C212.183 182.214 212.055 182.132 211.807 181.94L210.698 181.069L206.602 177.779L200.507 172.82L198.747 171.372C198.421 171.13 198.115 170.864 197.831 170.575C197.545 170.25 197.344 169.859 197.244 169.438C197.132 169.008 197.127 168.558 197.227 168.125C197.328 167.693 197.532 167.291 197.821 166.955C198.124 166.615 198.505 166.354 198.932 166.194C199.358 166.034 199.817 165.981 200.268 166.038C200.804 166.107 201.309 166.327 201.726 166.67C202.101 166.991 202.477 167.294 202.853 167.587L205.034 169.42L209.094 172.793L215.51 178.2L215.611 178.292L215.528 178.393C214.483 179.593 213.649 180.565 213.035 181.28L212.385 182.022C212.293 182.224 212.201 182.306 212.201 182.297Z" fill="#263238"/>
<path d="M256.78 180.079L257.147 179.639C257.922 178.706 258.323 177.519 258.274 176.308C258.225 175.096 257.729 173.945 256.881 173.078C256.033 172.211 254.894 171.689 253.684 171.613C252.474 171.536 251.278 171.911 250.328 172.664L230.018 155.746L206.785 183.543L227.571 200.04C226.927 201.048 226.672 202.256 226.856 203.437C227.04 204.619 227.65 205.692 228.57 206.456C229.555 207.271 230.821 207.668 232.095 207.562C233.37 207.455 234.552 206.855 235.389 205.888C238.323 208.101 242.004 209.084 245.651 208.627C249.297 208.17 252.622 206.31 254.92 203.441L258.256 199.28C260.482 196.486 261.568 192.952 261.294 189.389C261.021 185.827 259.408 182.5 256.78 180.079Z" fill="#0C6CCC"/>
<path d="M256.781 180.079L256.955 180.235L257.44 180.702C257.709 180.95 257.958 181.22 258.183 181.509L258.632 182.059L259.09 182.728C259.9 183.896 260.519 185.186 260.923 186.55C261.533 188.607 261.666 190.777 261.312 192.894C260.958 195.011 260.126 197.019 258.879 198.767C258.137 199.821 257.275 200.82 256.432 201.91C255.582 203.062 254.641 204.144 253.619 205.146C251.295 207.32 248.304 208.644 245.132 208.903C241.62 209.208 238.12 208.21 235.298 206.099H235.582C234.724 207.076 233.53 207.695 232.236 207.831C231.565 207.902 230.885 207.837 230.238 207.642C229.592 207.447 228.99 207.125 228.47 206.694C227.508 205.895 226.872 204.773 226.679 203.537C226.487 202.302 226.752 201.039 227.425 199.986L227.471 200.27L211.349 187.411L206.648 183.672L206.464 183.534L206.611 183.351C215.079 173.269 222.989 163.793 229.872 155.581L230 155.425L230.147 155.553L250.411 172.518H250.255C250.996 171.935 251.887 171.573 252.824 171.475C253.762 171.377 254.708 171.546 255.553 171.963C256.399 172.38 257.109 173.028 257.602 173.832C258.095 174.635 258.35 175.562 258.339 176.505C258.321 177.493 258.001 178.453 257.422 179.254C257.275 179.456 257.116 179.649 256.946 179.832L256.771 180.024C256.771 180.024 256.991 179.749 257.367 179.217C257.907 178.402 258.194 177.446 258.192 176.468C258.189 175.697 258.002 174.938 257.647 174.254C257.291 173.57 256.777 172.981 256.148 172.536C255.351 171.949 254.389 171.628 253.399 171.62C252.299 171.606 251.227 171.972 250.365 172.655L250.283 172.719L250.2 172.655L229.854 155.792H230.128L206.959 183.653V183.333L211.652 187.072L227.736 199.903L227.892 200.022L227.782 200.187C227.16 201.148 226.91 202.303 227.079 203.435C227.248 204.567 227.824 205.599 228.699 206.337C229.643 207.118 230.855 207.498 232.076 207.397C233.297 207.296 234.43 206.722 235.233 205.796L235.362 205.659L235.508 205.769C238.124 207.721 241.342 208.696 244.601 208.524C247.861 208.351 250.958 207.042 253.353 204.825C254.35 203.834 255.269 202.768 256.102 201.635C256.955 200.554 257.835 199.546 258.568 198.519C260.206 196.228 261.119 193.498 261.188 190.683C261.256 187.867 260.478 185.096 258.953 182.728C258.797 182.489 258.65 182.26 258.504 182.049L258.064 181.5C257.844 181.203 257.605 180.922 257.349 180.656L256.881 180.171C256.808 180.11 256.774 180.079 256.781 180.079Z" fill="#263238"/>
<path d="M233.529 180.612L219.198 168.761L216.879 171.565L231.21 183.416L233.529 180.612Z" fill="#E0E0E0"/>
<path d="M256.78 180.079C256.555 180.461 256.297 180.822 256.01 181.16C255.497 181.848 254.736 182.819 253.783 184.011C251.886 186.403 249.201 189.656 246.204 193.222C243.207 196.787 240.54 199.949 238.514 202.341L236.186 205.091C235.911 205.442 235.604 205.767 235.27 206.062C235.495 205.68 235.753 205.319 236.04 204.981C236.553 204.293 237.314 203.322 238.267 202.13C240.164 199.738 242.849 196.484 245.846 192.965L253.536 183.8L255.873 181.05C256.144 180.699 256.448 180.373 256.78 180.079Z" fill="#263238"/>
<path d="M250.328 172.628C250.088 173.031 249.812 173.411 249.503 173.764C248.944 174.479 248.119 175.506 247.102 176.761C245.049 179.272 242.171 182.7 238.963 186.458C235.755 190.215 232.878 193.552 230.715 196.072C229.688 197.245 228.882 198.226 228.203 198.968C227.908 199.336 227.583 199.68 227.232 199.995C227.482 199.596 227.76 199.216 228.066 198.858C228.625 198.143 229.441 197.117 230.467 195.861C232.52 193.35 235.398 189.922 238.606 186.165L246.854 176.56L249.366 173.654C249.66 173.288 249.981 172.945 250.328 172.628Z" fill="#263238"/>
<path d="M215.279 132.513H208.661L211.961 123.488L201.879 137.309H208.498L205.198 146.334L215.279 132.513Z" fill="#BBBBD6"/>
<path d="M166.911 142.577H156.953L161.918 159.231L146.748 133.726H156.706L151.741 117.072L166.911 142.577Z" fill="#BBBBD6"/>
</g>
<defs>
<filter id="filter0_i_100_11887" x="9" y="52" width="340.296" height="245.652" filterUnits="userSpaceOnUse" color-interpolation-filters="sRGB">
<feFlood flood-opacity="0" result="BackgroundImageFix"/>
<feBlend mode="normal" in="SourceGraphic" in2="BackgroundImageFix" result="shape"/>
<feColorMatrix in="SourceAlpha" type="matrix" values="0 0 0 0 0 0 0 0 0 0 0 0 0 0 0 0 0 0 127 0" result="hardAlpha"/>
<feOffset dy="5.62608"/>
<feGaussianBlur stdDeviation="7.50145"/>
<feComposite in2="hardAlpha" operator="arithmetic" k2="-1" k3="1"/>
<feColorMatrix type="matrix" values="0 0 0 0 0 0 0 0 0 0 0 0 0 0 0 0 0 0 0.25 0"/>
<feBlend mode="normal" in2="shape" result="effect1_innerShadow_100_11887"/>
</filter>
</defs>
</svg>
