<svg width="26" height="26" viewBox="0 0 26 26" fill="none" xmlns="http://www.w3.org/2000/svg">
<path fill-rule="evenodd" clip-rule="evenodd" d="M12.9998 2.16669C7.01677 2.16669 2.1665 7.01689 2.1665 13C2.1665 18.9831 7.01677 23.8334 12.9998 23.8334C18.983 23.8334 23.8332 18.9831 23.8332 13C23.8332 7.01689 18.983 2.16669 12.9998 2.16669ZM12.9998 21.6667C8.22105 21.6667 4.33317 17.7788 4.33317 13C4.33317 8.22123 8.22105 4.33335 12.9998 4.33335C17.7787 4.33335 21.6665 8.22123 21.6665 13C21.6665 17.7788 17.7787 21.6667 12.9998 21.6667ZM14.3564 8.66669C14.3564 9.45215 13.7845 10.0209 13.0108 10.0209C12.2059 10.0209 11.648 9.45215 11.648 8.65166C11.648 7.8823 12.221 7.31252 13.0108 7.31252C13.7845 7.31252 14.3564 7.8823 14.3564 8.66669ZM11.9189 11.9167H14.0855V18.4167H11.9189V11.9167Z" fill="#012939"/>
</svg>
