<svg width="40" height="40" viewBox="0 0 40 40" fill="none" xmlns="http://www.w3.org/2000/svg">
<circle cx="20" cy="20" r="19" fill="#543211" stroke="white" stroke-width="2"/>
<g clip-path="url(#clip0_100_8162)">
<path d="M17.924 22.3919L13.8711 23.2904L12.2788 28.9992H19.2554L19.9859 22.8901L18.7548 21.5579L17.924 22.3919Z" fill="white"/>
<path d="M27.1274 23.2903L23.0712 22.3918L22.2388 21.5586L21.0117 22.8908L21.7414 28.9999H28.7213L27.1274 23.2903Z" fill="white"/>
<path d="M20.4998 16.4279C23.2433 16.4279 25.4666 16.1523 25.4666 15.8115C25.4666 15.7381 25.3443 15.6664 25.1454 15.6012C24.9954 13.0859 25.0109 10 20.5014 10C15.9919 10 16.0058 13.0859 15.8574 15.6004C15.6576 15.6664 15.5337 15.7381 15.5337 15.8115C15.5337 16.1523 17.7587 16.4279 20.4998 16.4279Z" fill="white"/>
<path d="M24.6429 16.8014C23.7371 16.9489 22.3226 17.0443 20.7148 17.0443C18.8208 17.0443 17.191 16.9122 16.3569 16.719C16.6513 19.3329 18.3854 21.3508 20.5069 21.3508C22.603 21.3492 24.316 19.3745 24.6429 16.8014Z" fill="white"/>
</g>
<defs>
<clipPath id="clip0_100_8162">
<rect width="19" height="19" fill="white" transform="translate(11 10)"/>
</clipPath>
</defs>
</svg>
