<svg width="40" height="40" viewBox="0 0 40 40" fill="none" xmlns="http://www.w3.org/2000/svg">
<circle cx="20" cy="20" r="19" fill="#4285F4" stroke="white" stroke-width="2"/>
<path d="M29.1431 21.2567L29.1441 21.2557H29.1421L29.1431 21.2567Z" fill="white"/>
<path d="M30.0951 17.359C30.7924 16.8892 31.2729 15.9635 31.2729 15.1302C31.2729 13.9537 30.3198 13 29.1432 13C28.302 13 27.5771 13.488 27.2311 14.1956C27.3691 14.3673 27.4552 14.5829 27.4552 14.8199V16.5749C27.6517 16.8876 27.9007 17.1641 28.1914 17.359C27.9345 17.424 27.6894 17.5168 27.4552 17.6245V19.1305C27.4552 19.6807 27.0083 20.1284 26.4571 20.1284H25.7686L26.1664 20.5261V20.9367C26.9075 21.1494 28.0247 21.2558 29.1406 21.2558L28.0617 20.1768L28.971 17.978H28.9616L28.6083 17.5734C28.7799 17.6348 28.9576 17.6714 29.142 17.6714C29.3271 17.6714 29.5048 17.6347 29.675 17.5734L29.3224 17.978H29.3129L30.2229 20.1768L29.1432 21.2558C31.0708 21.2572 32.9999 20.9408 32.9999 20.3054C33.0006 19.2318 31.7642 17.783 30.0951 17.359Z" fill="white"/>
<path d="M24.1398 18.4066C24.1398 18.872 24.0428 19.3504 23.8712 19.8066H26.4571C26.8299 19.8066 27.1336 19.5031 27.1336 19.1305V14.8206C27.1336 14.4481 26.8299 14.1438 26.4571 14.1438H19.9854C19.6132 14.1438 19.3086 14.4481 19.3086 14.8206V15.2998C19.7428 15.1012 20.2206 14.9882 20.7213 14.9882C22.6066 14.9882 24.1398 16.5217 24.1398 18.4066Z" fill="white"/>
<path d="M23.6053 20.3826C23.4996 20.5758 23.3778 20.7602 23.2466 20.9353H25.8439V20.6607L25.5687 20.3833H23.6053V20.3826Z" fill="white"/>
<path d="M20.7212 26.3316L20.7217 26.3306H20.7202L20.7212 26.3316Z" fill="white"/>
<path d="M21.9524 21.2892C22.8557 20.6822 23.4769 19.4841 23.4769 18.4059C23.4769 16.884 22.2425 15.6497 20.7214 15.6497C19.6334 15.6497 18.6951 16.281 18.2472 17.1964C18.4266 17.4191 18.5387 17.6982 18.5387 18.0047V20.2742C18.7923 20.6794 19.1151 21.0368 19.49 21.2892C19.1575 21.3741 18.8412 21.4925 18.5387 21.6339V23.5803C18.5387 24.2918 17.9598 24.8713 17.2464 24.8713H16.356L16.8702 25.3854V25.9172C17.8296 26.1925 19.2743 26.3298 20.7187 26.3305L19.3218 24.9345L20.5003 22.0888H20.4878L20.0309 21.5652C20.2529 21.6447 20.4832 21.6918 20.722 21.6918C20.9607 21.6918 21.1905 21.6454 21.4112 21.5659L20.9553 22.0888H20.9435L22.1206 24.9345L20.7237 26.3305C23.2183 26.3311 25.7127 25.9219 25.7127 25.1008C25.7114 23.7122 24.1115 21.8372 21.9524 21.2892Z" fill="white"/>
<path d="M13.4188 25.2011V24.4553H17.2471C17.729 24.4553 18.1231 24.0616 18.1231 23.5803V18.0048C18.1231 17.5226 17.729 17.1288 17.2471 17.1288H8.87531C8.39372 17.1288 8 17.5218 8 18.0048V23.5803C8 24.0609 8.39372 24.4553 8.87531 24.4553H12.704V25.2011H10.0256L9.66883 25.5591V25.9159H16.4546V25.5591L16.0976 25.2011H13.4188Z" fill="white"/>
</svg>
