<svg width="40" height="40" viewBox="0 0 40 40" fill="none" xmlns="http://www.w3.org/2000/svg">
<circle cx="20" cy="20" r="19" fill="#34A853" stroke="white" stroke-width="2"/>
<path d="M22.0891 23.853H21.0586V26.0424H22.0891V23.853Z" fill="white"/>
<path d="M19.8721 20.5H18.8237V22.7062H19.8721V20.5Z" fill="white"/>
<path fill-rule="evenodd" clip-rule="evenodd" d="M21.3896 16.9001C22.3486 15.7824 23.0326 13.2599 23.0326 12.3468C23.0326 10.4177 21.8825 12.8385 20.4642 12.8385C19.0437 12.8385 17.8959 10.3931 17.8959 12.3468C17.8959 13.2755 18.5989 15.8651 19.5858 16.9548C16.6709 17.7819 14.373 21.9775 14.373 25.6658C14.373 28.9271 17.1169 29.4255 20.5 29.4255C23.8831 29.4255 26.6258 28.8824 26.6258 25.6658C26.6258 22.3061 24.386 17.6176 21.3896 16.9001ZM23.3288 26.1408H22.2111V27.2405H21.0935V28.3928H19.9065V27.2405H18.7889V26.1408L18.8034 26.1229H17.6712V24.936H18.8414V26.076L18.8593 26.0536H19.9076V23.8876H18.8235V22.7878H17.6533V20.4832H18.8235V19.3477H19.9065V18.1954H21.0935V19.3477H22.2111V20.4654H23.3109V21.6523H22.1407V20.5112L22.1228 20.5179H21.0923V22.7007H22.2279V23.8362H23.3276V26.1408H23.3288Z" fill="white"/>
</svg>
