<svg width="16" height="16" viewBox="0 0 16 16" fill="none" xmlns="http://www.w3.org/2000/svg">
<g id="plus-file_svgrepo.com">
<path id="Vector" fill-rule="evenodd" clip-rule="evenodd" d="M6.66667 0.666016C6.48985 0.666016 6.32029 0.736256 6.19526 0.861276L2.19526 4.86128C2.07024 4.9863 2 5.15587 2 5.33268V13.3327C2 14.4373 2.89543 15.3327 4 15.3327H9.33333C9.70153 15.3327 10 15.0342 10 14.666C10 14.2978 9.70153 13.9993 9.33333 13.9993H4C3.63181 13.9993 3.33333 13.7009 3.33333 13.3327V5.99935H6.66667C7.03487 5.99935 7.33333 5.70087 7.33333 5.33268V1.99935H12C12.3682 1.99935 12.6667 2.29783 12.6667 2.66602V5.33268C12.6667 5.70087 12.9651 5.99935 13.3333 5.99935C13.7015 5.99935 14 5.70087 14 5.33268V2.66602C14 1.56145 13.1046 0.666016 12 0.666016H6.66667ZM6 4.66602H4.27614L6 2.94216V4.66602ZM13.3333 7.99935C13.3333 7.63115 13.0349 7.33268 12.6667 7.33268C12.2985 7.33268 12 7.63115 12 7.99935V9.99935H10C9.6318 9.99935 9.33333 10.2978 9.33333 10.666C9.33333 11.0342 9.6318 11.3327 10 11.3327H12V13.3327C12 13.7009 12.2985 13.9993 12.6667 13.9993C13.0349 13.9993 13.3333 13.7009 13.3333 13.3327V11.3327H15.3333C15.7015 11.3327 16 11.0342 16 10.666C16 10.2978 15.7015 9.99935 15.3333 9.99935H13.3333V7.99935Z" fill="white"/>
</g>
</svg>
