<svg width="12" height="15" viewBox="0 0 12 15" fill="none" xmlns="http://www.w3.org/2000/svg">
<path id="Vector" fill-rule="evenodd" clip-rule="evenodd" d="M4.19526 0.19526C4.32029 0.07024 4.48985 0 4.66667 0H10C11.1046 0 12 0.895433 12 2V12.6667C12 13.7713 11.1046 14.6667 10 14.6667H2C0.895433 14.6667 0 13.7713 0 12.6667V4.66667C0 4.48985 0.0702401 4.32029 0.19526 4.19526L4.19526 0.19526ZM10 1.33333H5.33333V4.66667C5.33333 5.03485 5.03487 5.33333 4.66667 5.33333H1.33333V12.6667C1.33333 13.0349 1.63181 13.3333 2 13.3333H10C10.3682 13.3333 10.6667 13.0349 10.6667 12.6667V2C10.6667 1.63181 10.3682 1.33333 10 1.33333ZM2.27614 4H4V2.27614L2.27614 4ZM2.66667 8C2.66667 7.6318 2.96515 7.33333 3.33333 7.33333H8.66667C9.03487 7.33333 9.33333 7.6318 9.33333 8C9.33333 8.3682 9.03487 8.66667 8.66667 8.66667H3.33333C2.96515 8.66667 2.66667 8.3682 2.66667 8ZM2.66667 10.6667C2.66667 10.2985 2.96515 10 3.33333 10H8.66667C9.03487 10 9.33333 10.2985 9.33333 10.6667C9.33333 11.0349 9.03487 11.3333 8.66667 11.3333H3.33333C2.96515 11.3333 2.66667 11.0349 2.66667 10.6667Z" fill="black" fill-opacity="0.47"/>
</svg>
