<svg width="16" height="16" viewBox="0 0 16 16" fill="none" xmlns="http://www.w3.org/2000/svg">
<g id="file-plus-1703_svgrepo.com">
<g id="Page-1">
<g id="Dribbble-Light-Preview">
<g id="icons">
<path id="file_plus-[#1703]" fill-rule="evenodd" clip-rule="evenodd" d="M5.81818 13.7908C5.81818 13.7872 5.82036 13.7843 5.82036 13.7814C5.82036 13.7778 5.81818 13.7756 5.81818 13.772V13.7908ZM15.7862 4.1701L11.8495 0.249023C11.7127 0.113663 11.5287 0 11.336 0H2.90909H2.89165C2.09819 0 1.45455 0.678227 1.45455 1.46795V1.50559V9.48535C1.45455 9.88564 1.78036 10.2092 2.18182 10.2092C2.58327 10.2092 2.90909 9.88564 2.90909 9.48535V2.2468C2.90909 1.84723 3.23491 1.44771 3.63636 1.44771H10.1818V4.41841C10.1818 5.21827 10.8327 5.79084 11.6364 5.79084H14.5455V12.3808C14.5455 12.7811 14.2196 13.0293 13.8182 13.0293H6.54545C6.14691 13.0293 5.82545 13.3855 5.82036 13.7814C5.82545 14.1759 6.14691 14.477 6.54545 14.477H14.5455V14.5146C15.3491 14.5146 16 13.9044 16 13.1046V13.0872V4.70215C16 4.5096 15.9229 4.30619 15.7862 4.1701ZM3.63636 13.0293H2.90909V12.3808C2.90909 11.9812 2.58327 11.6569 2.18182 11.6569C1.78036 11.6569 1.45455 11.9812 1.45455 12.3808V13.0293H0.727273C0.328727 13.0293 0.00726598 13.3855 0.00217507 13.7814C0.00726598 14.1759 0.328727 14.477 0.727273 14.477H1.45455V15.2762C1.45455 15.6765 1.78036 16 2.18182 16C2.58327 16 2.90909 15.6765 2.90909 15.2762V14.477H3.63636C4.03782 14.477 4.36364 14.1904 4.36364 13.7908V13.772C4.36364 13.3725 4.03782 13.0293 3.63636 13.0293ZM0 13.772C0 13.7756 0.00217507 13.7778 0.00217507 13.7814C0.00217507 13.7843 0 13.7872 0 13.7908V13.772Z" fill="white"/>
</g>
</g>
</g>
</g>
</svg>
