<svg width="40" height="40" viewBox="0 0 40 40" fill="none" xmlns="http://www.w3.org/2000/svg">
<circle cx="20" cy="20" r="19" fill="#B26196" stroke="white" stroke-width="2"/>
<path d="M14.9603 25.4732C15.0137 25.4732 20.1675 25.39 20.1675 18.4135C20.1702 17.6308 19.9585 16.8623 19.5555 16.1913C19.1524 15.5204 18.5734 14.9726 17.8811 14.6073C17.1889 14.2421 16.4099 14.0733 15.6285 14.1194C14.8472 14.1654 14.0933 14.4245 13.4488 14.8685C12.8042 15.3125 12.2935 15.9245 11.972 16.6381C11.6506 17.3517 11.5306 18.1398 11.6252 18.9167C11.7197 19.6937 12.0252 20.4299 12.5084 21.0456C12.9917 21.6613 13.6343 22.133 14.3665 22.4094V24.8794C14.3665 25.0369 14.4291 25.1879 14.5404 25.2992C14.6518 25.4106 14.8028 25.4732 14.9603 25.4732ZM12.7812 18.4135C12.7812 17.5915 13.1078 16.8031 13.689 16.2219C14.2703 15.6406 15.0586 15.3141 15.8806 15.3141C16.7026 15.3141 17.4909 15.6406 18.0722 16.2219C18.6534 16.8031 18.98 17.5915 18.98 18.4135C18.98 22.8666 16.6762 23.9413 15.554 24.2025V21.976C15.5583 21.8411 15.5165 21.7089 15.4356 21.6009C15.3546 21.493 15.2394 21.4159 15.1087 21.3822C14.4477 21.2133 13.861 20.8306 13.4401 20.2937C13.0191 19.7567 12.7875 19.0957 12.7812 18.4135Z" fill="white"/>
<path d="M24.1931 25.4731C24.2466 25.4731 29.4063 25.39 29.4063 18.4134C29.4085 17.6311 29.1967 16.8631 28.7936 16.1925C28.3906 15.522 27.8117 14.9746 27.1198 14.6095C26.4279 14.2444 25.6492 14.0757 24.8683 14.1215C24.0873 14.1673 23.3337 14.426 22.6892 14.8695C22.0447 15.313 21.5339 15.9244 21.2121 16.6375C20.8902 17.3505 20.7697 18.1381 20.8634 18.9148C20.9572 19.6915 21.2617 20.4277 21.744 21.0437C22.2262 21.6597 22.8679 22.132 23.5994 22.4094V24.8794C23.5994 25.0368 23.6619 25.1879 23.7733 25.2992C23.8846 25.4106 24.0357 25.4731 24.1931 25.4731ZM22.02 18.4134C22.02 17.5914 22.3465 16.8031 22.9278 16.2218C23.509 15.6406 24.2974 15.314 25.1194 15.314C25.9414 15.314 26.7297 15.6406 27.311 16.2218C27.8922 16.8031 28.2188 17.5914 28.2188 18.4134C28.2188 22.8665 25.9091 23.9412 24.7869 24.2025V21.9759C24.7911 21.8411 24.7494 21.7088 24.6684 21.6009C24.5875 21.493 24.4722 21.4158 24.3416 21.3822C23.6816 21.2122 23.0963 20.829 22.6765 20.2921C22.2567 19.7553 22.0259 19.0949 22.02 18.4134Z" fill="white"/>
</svg>
