<svg width="40" height="40" viewBox="0 0 40 40" fill="none" xmlns="http://www.w3.org/2000/svg">
<circle cx="20" cy="20" r="19" fill="#F29821" stroke="white" stroke-width="2"/>
<g clip-path="url(#clip0_100_8194)">
<path d="M12.0828 25.2541C12.0828 24.2932 12.0828 13.0428 12.0828 12.0811C13.0342 12.0811 23.1838 12.0811 24.1352 12.0811C24.1352 12.4211 24.1352 14.0492 24.1352 16.0508C24.3679 16.0078 24.6066 15.9786 24.8513 15.9786C24.9767 15.9786 25.0952 16.0044 25.2188 16.0156V11H11V26.3352H19.9423V25.2541C16.6879 25.2541 12.665 25.2541 12.0828 25.2541Z" fill="#FFFAFA"/>
<path d="M13.6226 19.2339H20.9668C21.039 18.8294 21.1815 18.4533 21.3687 18.1013H13.6226V19.2339Z" fill="#FFFAFA"/>
<path d="M22.5941 14.5601H13.6226V15.6927H22.5941V14.5601Z" fill="#FFFAFA"/>
<path d="M13.6226 22.7759H21.2365C21.44 22.6523 21.6572 22.5518 21.8899 22.49C21.6692 22.2332 21.488 21.9447 21.3335 21.6433H13.6226V22.7759Z" fill="#FFFAFA"/>
<path d="M24.8524 22.8893C26.4873 22.8893 27.8045 21.5678 27.8045 19.938C27.8045 18.3065 26.4873 16.9858 24.8524 16.9858C23.2243 16.9858 21.9062 18.3065 21.9062 19.938C21.9062 21.5678 23.2243 22.8893 24.8524 22.8893Z" fill="#FFFAFA"/>
<path d="M27.2215 23.3684H22.4902C21.6452 23.3684 20.9531 24.1429 20.9531 25.0969V29.8472C20.9531 29.8995 20.9772 29.9459 20.9806 30H28.7267C28.7302 29.9468 28.7542 29.8995 28.7542 29.8472V25.0969C28.7577 24.1455 28.0673 23.3684 27.2215 23.3684Z" fill="#FFFAFA"/>
</g>
<defs>
<clipPath id="clip0_100_8194">
<rect width="19" height="19" fill="white" transform="translate(11 11)"/>
</clipPath>
</defs>
</svg>
