<svg width="83" height="83" viewBox="0 0 83 83" fill="none" xmlns="http://www.w3.org/2000/svg">
<path d="M9.96 2.62512C10.366 2.55899 10.7818 2.59035 11.1733 2.71663C11.5648 2.84291 11.9206 3.06047 12.2114 3.35137L15.5625 6.70768L18.9136 3.35137C19.1546 3.10982 19.4408 2.91818 19.7559 2.78742C20.071 2.65666 20.4088 2.58936 20.75 2.58936C21.0912 2.58936 21.429 2.65666 21.7441 2.78742C22.0592 2.91818 22.3454 3.10982 22.5864 3.35137L25.9375 6.70768L29.2886 3.35137C29.5296 3.10982 29.8158 2.91818 30.1309 2.78742C30.446 2.65666 30.7838 2.58936 31.125 2.58936C31.4662 2.58936 31.804 2.65666 32.1191 2.78742C32.4342 2.91818 32.7204 3.10982 32.9614 3.35137L36.3125 6.70768L39.6636 3.35137C39.9046 3.10982 40.1908 2.91818 40.5059 2.78742C40.821 2.65666 41.1588 2.58936 41.5 2.58936C41.8412 2.58936 42.179 2.65666 42.4941 2.78742C42.8092 2.91818 43.0954 3.10982 43.3364 3.35137L46.6875 6.70768L50.0386 3.35137C50.2796 3.10982 50.5658 2.91818 50.8809 2.78742C51.196 2.65666 51.5338 2.58936 51.875 2.58936C52.2162 2.58936 52.554 2.65666 52.8691 2.78742C53.1842 2.91818 53.4704 3.10982 53.7114 3.35137L57.0625 6.70768L60.4136 3.35137C60.6546 3.10982 60.9408 2.91818 61.2559 2.78742C61.571 2.65666 61.9088 2.58936 62.25 2.58936C62.5912 2.58936 62.929 2.65666 63.2441 2.78742C63.5592 2.91818 63.8454 3.10982 64.0864 3.35137L67.4375 6.70768L70.7886 3.35137C71.0792 3.06052 71.4349 2.84293 71.8261 2.71654C72.2174 2.59015 72.6331 2.55859 73.0389 2.62446C73.4448 2.69033 73.8292 2.85174 74.1604 3.09538C74.4916 3.33902 74.7601 3.65791 74.9438 4.02574L77.5376 9.21324C77.7183 9.57392 77.8125 9.9718 77.8125 10.3752V72.6253C77.8125 73.0287 77.7183 73.4266 77.5376 73.7873L74.9438 78.9748C74.7599 79.3417 74.4915 79.6597 74.1607 79.9027C73.83 80.1456 73.4463 80.3067 73.0412 80.3725C72.636 80.4383 72.2211 80.4071 71.8304 80.2813C71.4397 80.1556 71.0845 79.9389 70.7938 79.6491L67.4375 76.2928L64.0864 79.6491C63.8454 79.8907 63.5592 80.0823 63.2441 80.2131C62.929 80.3438 62.5912 80.4111 62.25 80.4111C61.9088 80.4111 61.571 80.3438 61.2559 80.2131C60.9408 80.0823 60.6546 79.8907 60.4136 79.6491L57.0625 76.2928L53.7114 79.6491C53.4704 79.8907 53.1842 80.0823 52.8691 80.2131C52.554 80.3438 52.2162 80.4111 51.875 80.4111C51.5338 80.4111 51.196 80.3438 50.8809 80.2131C50.5658 80.0823 50.2796 79.8907 50.0386 79.6491L46.6875 76.2928L43.3364 79.6491C43.0954 79.8907 42.8092 80.0823 42.4941 80.2131C42.179 80.3438 41.8412 80.4111 41.5 80.4111C41.1588 80.4111 40.821 80.3438 40.5059 80.2131C40.1908 80.0823 39.9046 79.8907 39.6636 79.6491L36.3125 76.2928L32.9614 79.6491C32.7204 79.8907 32.4342 80.0823 32.1191 80.2131C31.804 80.3438 31.4662 80.4111 31.125 80.4111C30.7838 80.4111 30.446 80.3438 30.1309 80.2131C29.8158 80.0823 29.5296 79.8907 29.2886 79.6491L25.9375 76.2928L22.5864 79.6491C22.3454 79.8907 22.0592 80.0823 21.7441 80.2131C21.429 80.3438 21.0912 80.4111 20.75 80.4111C20.4088 80.4111 20.071 80.3438 19.7559 80.2131C19.4408 80.0823 19.1546 79.8907 18.9136 79.6491L15.5625 76.2928L12.2114 79.6491C11.9208 79.94 11.5651 80.1576 11.1739 80.284C10.7826 80.4103 10.3669 80.4419 9.96108 80.376C9.55523 80.3102 9.17085 80.1488 8.83965 79.9051C8.50844 79.6615 8.23991 79.3426 8.05619 78.9748L5.46244 73.7873C5.28167 73.4266 5.18753 73.0287 5.1875 72.6253V10.3752C5.18753 9.9718 5.28167 9.57392 5.46244 9.21324L8.05619 4.02574C8.23988 3.65816 8.50829 3.33949 8.83929 3.09598C9.17028 2.85246 9.5544 2.69108 9.96 2.62512ZM11.0857 9.56599L10.375 10.9874V72.0131L11.0857 73.4345L13.7313 70.7889C14.2177 70.3026 14.8773 70.0295 15.5651 70.0295C16.2529 70.0295 16.9125 70.3026 17.3989 70.7889L20.75 74.1452L24.1011 70.7941C24.3421 70.5525 24.6283 70.3609 24.9434 70.2301C25.2585 70.0994 25.5963 70.0321 25.9375 70.0321C26.2787 70.0321 26.6165 70.0994 26.9316 70.2301C27.2467 70.3609 27.5329 70.5525 27.7739 70.7941L31.125 74.1452L34.4761 70.7941C34.7171 70.5525 35.0033 70.3609 35.3184 70.2301C35.6335 70.0994 35.9713 70.0321 36.3125 70.0321C36.6537 70.0321 36.9915 70.0994 37.3066 70.2301C37.6217 70.3609 37.9079 70.5525 38.1489 70.7941L41.5 74.1452L44.8511 70.7941C45.0921 70.5525 45.3783 70.3609 45.6934 70.2301C46.0085 70.0994 46.3463 70.0321 46.6875 70.0321C47.0287 70.0321 47.3665 70.0994 47.6816 70.2301C47.9967 70.3609 48.2829 70.5525 48.5239 70.7941L51.875 74.1452L55.2261 70.7941C55.4671 70.5525 55.7533 70.3609 56.0684 70.2301C56.3835 70.0994 56.7213 70.0321 57.0625 70.0321C57.4037 70.0321 57.7415 70.0994 58.0566 70.2301C58.3717 70.3609 58.6579 70.5525 58.8989 70.7941L62.25 74.1452L65.6011 70.7941C65.8421 70.5525 66.1283 70.3609 66.4434 70.2301C66.7585 70.0994 67.0963 70.0321 67.4375 70.0321C67.7787 70.0321 68.1165 70.0994 68.4316 70.2301C68.7467 70.3609 69.0329 70.5525 69.2739 70.7941L71.9143 73.4345L72.625 72.0131V10.9874L71.9143 9.56599L69.2687 12.2116C68.7823 12.6979 68.1227 12.971 67.4349 12.971C66.7471 12.971 66.0875 12.6979 65.6011 12.2116L62.25 8.85531L58.8989 12.2116C58.6579 12.4532 58.3717 12.6448 58.0566 12.7756C57.7415 12.9063 57.4037 12.9736 57.0625 12.9736C56.7213 12.9736 56.3835 12.9063 56.0684 12.7756C55.7533 12.6448 55.4671 12.4532 55.2261 12.2116L51.875 8.85531L48.5239 12.2116C48.2829 12.4532 47.9967 12.6448 47.6816 12.7756C47.3665 12.9063 47.0287 12.9736 46.6875 12.9736C46.3463 12.9736 46.0085 12.9063 45.6934 12.7756C45.3783 12.6448 45.0921 12.4532 44.8511 12.2116L41.5 8.85531L38.1489 12.2116C37.9079 12.4532 37.6217 12.6448 37.3066 12.7756C36.9915 12.9063 36.6537 12.9736 36.3125 12.9736C35.9713 12.9736 35.6335 12.9063 35.3184 12.7756C35.0033 12.6448 34.7171 12.4532 34.4761 12.2116L31.125 8.85531L27.7739 12.2116C27.5329 12.4532 27.2467 12.6448 26.9316 12.7756C26.6165 12.9063 26.2787 12.9736 25.9375 12.9736C25.5963 12.9736 25.2585 12.9063 24.9434 12.7756C24.6283 12.6448 24.3421 12.4532 24.1011 12.2116L20.75 8.85531L17.3989 12.2116C17.1579 12.4532 16.8717 12.6448 16.5566 12.7756C16.2415 12.9063 15.9037 12.9736 15.5625 12.9736C15.2213 12.9736 14.8835 12.9063 14.5684 12.7756C14.2533 12.6448 13.9671 12.4532 13.7261 12.2116L11.0857 9.56599Z" fill="#7CB041"/>
<path d="M15.5625 23.3438C15.5625 22.6558 15.8358 21.9961 16.3222 21.5097C16.8086 21.0233 17.4683 20.75 18.1562 20.75H49.2812C49.9692 20.75 50.6289 21.0233 51.1153 21.5097C51.6017 21.9961 51.875 22.6558 51.875 23.3438C51.875 24.0317 51.6017 24.6914 51.1153 25.1778C50.6289 25.6642 49.9692 25.9375 49.2812 25.9375H18.1562C17.4683 25.9375 16.8086 25.6642 16.3222 25.1778C15.8358 24.6914 15.5625 24.0317 15.5625 23.3438ZM15.5625 33.7188C15.5625 33.0308 15.8358 32.3711 16.3222 31.8847C16.8086 31.3983 17.4683 31.125 18.1562 31.125H49.2812C49.9692 31.125 50.6289 31.3983 51.1153 31.8847C51.6017 32.3711 51.875 33.0308 51.875 33.7188C51.875 34.4067 51.6017 35.0664 51.1153 35.5528C50.6289 36.0392 49.9692 36.3125 49.2812 36.3125H18.1562C17.4683 36.3125 16.8086 36.0392 16.3222 35.5528C15.8358 35.0664 15.5625 34.4067 15.5625 33.7188ZM15.5625 44.0938C15.5625 43.4058 15.8358 42.7461 16.3222 42.2597C16.8086 41.7733 17.4683 41.5 18.1562 41.5H49.2812C49.9692 41.5 50.6289 41.7733 51.1153 42.2597C51.6017 42.7461 51.875 43.4058 51.875 44.0938C51.875 44.7817 51.6017 45.4414 51.1153 45.9278C50.6289 46.4142 49.9692 46.6875 49.2812 46.6875H18.1562C17.4683 46.6875 16.8086 46.4142 16.3222 45.9278C15.8358 45.4414 15.5625 44.7817 15.5625 44.0938ZM15.5625 54.4688C15.5625 53.7808 15.8358 53.1211 16.3222 52.6347C16.8086 52.1483 17.4683 51.875 18.1562 51.875H49.2812C49.9692 51.875 50.6289 52.1483 51.1153 52.6347C51.6017 53.1211 51.875 53.7808 51.875 54.4688C51.875 55.1567 51.6017 55.8164 51.1153 56.3028C50.6289 56.7892 49.9692 57.0625 49.2812 57.0625H18.1562C17.4683 57.0625 16.8086 56.7892 16.3222 56.3028C15.8358 55.8164 15.5625 55.1567 15.5625 54.4688ZM57.0625 23.3438C57.0625 22.6558 57.3358 21.9961 57.8222 21.5097C58.3086 21.0233 58.9683 20.75 59.6562 20.75H64.8438C65.5317 20.75 66.1914 21.0233 66.6778 21.5097C67.1642 21.9961 67.4375 22.6558 67.4375 23.3438C67.4375 24.0317 67.1642 24.6914 66.6778 25.1778C66.1914 25.6642 65.5317 25.9375 64.8438 25.9375H59.6562C58.9683 25.9375 58.3086 25.6642 57.8222 25.1778C57.3358 24.6914 57.0625 24.0317 57.0625 23.3438ZM57.0625 33.7188C57.0625 33.0308 57.3358 32.3711 57.8222 31.8847C58.3086 31.3983 58.9683 31.125 59.6562 31.125H64.8438C65.5317 31.125 66.1914 31.3983 66.6778 31.8847C67.1642 32.3711 67.4375 33.0308 67.4375 33.7188C67.4375 34.4067 67.1642 35.0664 66.6778 35.5528C66.1914 36.0392 65.5317 36.3125 64.8438 36.3125H59.6562C58.9683 36.3125 58.3086 36.0392 57.8222 35.5528C57.3358 35.0664 57.0625 34.4067 57.0625 33.7188ZM57.0625 44.0938C57.0625 43.4058 57.3358 42.7461 57.8222 42.2597C58.3086 41.7733 58.9683 41.5 59.6562 41.5H64.8438C65.5317 41.5 66.1914 41.7733 66.6778 42.2597C67.1642 42.7461 67.4375 43.4058 67.4375 44.0938C67.4375 44.7817 67.1642 45.4414 66.6778 45.9278C66.1914 46.4142 65.5317 46.6875 64.8438 46.6875H59.6562C58.9683 46.6875 58.3086 46.4142 57.8222 45.9278C57.3358 45.4414 57.0625 44.7817 57.0625 44.0938ZM57.0625 54.4688C57.0625 53.7808 57.3358 53.1211 57.8222 52.6347C58.3086 52.1483 58.9683 51.875 59.6562 51.875H64.8438C65.5317 51.875 66.1914 52.1483 66.6778 52.6347C67.1642 53.1211 67.4375 53.7808 67.4375 54.4688C67.4375 55.1567 67.1642 55.8164 66.6778 56.3028C66.1914 56.7892 65.5317 57.0625 64.8438 57.0625H59.6562C58.9683 57.0625 58.3086 56.7892 57.8222 56.3028C57.3358 55.8164 57.0625 55.1567 57.0625 54.4688Z" fill="#7CB041"/>
</svg>
