<svg width="40" height="40" viewBox="0 0 40 40" fill="none" xmlns="http://www.w3.org/2000/svg">
<circle cx="20" cy="20" r="19" fill="#2E2A7B" stroke="white" stroke-width="2"/>
<path d="M26.383 12.3571H26.2628C25.6985 12.3571 25.176 12.6746 24.8649 13.206C24.7506 13.3991 24.4513 13.4236 24.309 13.2511C23.8354 12.6746 23.2066 12.3571 22.5344 12.3571C21.8668 12.3571 21.2382 12.6746 20.7641 13.2511C20.6346 13.4084 20.3698 13.4095 20.2395 13.2507C19.7655 12.6746 19.1368 12.3571 18.4692 12.3571C17.8016 12.3571 17.173 12.6746 16.6989 13.2511C16.5568 13.4251 16.2575 13.4012 16.1432 13.206C15.8315 12.6746 15.309 12.3571 14.7449 12.3571H14.6108C13.7408 12.3571 13.0327 13.0652 13.0327 13.9352V27.0647C13.0327 27.9347 13.7408 28.6427 14.6108 28.6427H14.7449C15.3088 28.6427 15.8313 28.3253 16.1436 27.7931C16.2562 27.5996 16.5561 27.5744 16.6989 27.749C17.173 28.3251 17.8016 28.6426 18.4692 28.6426C19.1368 28.6426 19.7655 28.3251 20.2395 27.7486C20.3698 27.5905 20.6346 27.5909 20.7641 27.749C21.2382 28.3251 21.8668 28.6426 22.539 28.6426C23.2066 28.6426 23.8356 28.3251 24.3088 27.7493C24.4522 27.576 24.752 27.6009 24.8647 27.7931C25.1762 28.3253 25.6987 28.6427 26.2629 28.6427H26.3832C27.2532 28.6427 27.9613 27.9347 27.9613 27.0647V13.9354C27.9613 13.0652 27.253 12.3571 26.383 12.3571ZM26.604 27.0647C26.604 27.1866 26.5049 27.2857 26.383 27.2857H26.2628C26.1488 27.2857 26.0603 27.1495 26.0358 27.1073C25.7323 26.5895 25.171 26.2677 24.5713 26.2677C24.0624 26.2677 23.585 26.4934 23.2606 26.8873C23.1383 27.0361 22.8819 27.2855 22.5344 27.2855C22.1915 27.2855 21.9347 27.0357 21.8124 26.8873C21.166 26.0996 19.8384 26.0995 19.1912 26.8869C19.0689 27.0357 18.8121 27.2855 18.4692 27.2855C18.1263 27.2855 17.8696 27.0357 17.7473 26.8873C17.4239 26.4934 16.9461 26.2677 16.4369 26.2677C15.8365 26.2677 15.2752 26.5899 14.9724 27.1073C14.9479 27.1491 14.8591 27.2857 14.7451 27.2857H14.611C14.4891 27.2857 14.39 27.1866 14.39 27.0647V13.9354C14.39 13.8135 14.4891 13.7144 14.611 13.7144H14.7451C14.8591 13.7144 14.9479 13.851 14.9721 13.892C15.2752 14.4102 15.8365 14.7323 16.4369 14.7323C16.9463 14.7323 17.4241 14.5067 17.7473 14.1129C17.8696 13.9641 18.1263 13.7144 18.4692 13.7144C18.8121 13.7144 19.0689 13.9641 19.1912 14.1126C19.8384 14.9008 21.166 14.8999 21.8124 14.1129C21.9347 13.9641 22.1915 13.7144 22.539 13.7144C22.8819 13.7144 23.1383 13.964 23.261 14.1133C23.585 14.5067 24.0625 14.7323 24.5713 14.7323C25.171 14.7323 25.7323 14.4106 26.0362 13.892C26.0603 13.8506 26.1488 13.7144 26.2628 13.7144H26.383C26.5049 13.7144 26.604 13.8135 26.604 13.9354V27.0647Z" fill="white"/>
<path d="M15.7468 17.781H25.2468V19.1381H15.7468V17.781ZM15.7451 21.1717H22.5308V22.5332H15.7451V21.1717Z" fill="white"/>
</svg>
