<svg width="25" height="25" viewBox="0 0 25 25" fill="none" xmlns="http://www.w3.org/2000/svg">
<path d="M13.5416 2.08331C10.6651 2.08331 8.33325 4.41517 8.33325 7.29165C8.33325 7.86694 8.79962 8.33331 9.37492 8.33331C9.95021 8.33331 10.4166 7.86694 10.4166 7.29165C10.4166 5.56576 11.8157 4.16665 13.5416 4.16665H17.7082C19.4342 4.16665 20.8332 5.56576 20.8332 7.29165V17.7083C20.8332 19.4343 19.4342 20.8333 17.7082 20.8333H13.5416C11.8157 20.8333 10.4166 19.4343 10.4166 17.7083C10.4166 17.133 9.95021 16.6666 9.37492 16.6666C8.79962 16.6666 8.33325 17.133 8.33325 17.7083C8.33325 20.5848 10.6651 22.9166 13.5416 22.9166H17.7082C20.5847 22.9166 22.9166 20.5848 22.9166 17.7083V7.29165C22.9166 4.41517 20.5847 2.08331 17.7082 2.08331H13.5416Z" fill="#FB0000"/>
<path d="M14.5833 11.4583C15.1586 11.4583 15.6249 11.9247 15.6249 12.5C15.6249 13.0753 15.1586 13.5416 14.5833 13.5416V11.4583Z" fill="#FB0000"/>
<path d="M5.95609 11.4583C6.04882 11.344 6.13766 11.233 6.2217 11.1271C6.47742 10.8045 6.69392 10.5212 6.84679 10.3182C6.92331 10.2166 6.98406 10.1348 7.026 10.078L7.07451 10.0121L7.08751 9.99431L7.09212 9.98799C7.09216 9.98793 7.09264 9.98726 6.24992 9.37499L7.09212 9.98799C7.43026 9.52257 7.32762 8.87042 6.86219 8.53226C6.39679 8.19413 5.74541 8.29729 5.40724 8.76265L5.4043 8.76668L5.39364 8.78127L5.35014 8.8404C5.31166 8.89251 5.25476 8.96909 5.18247 9.0651C5.03775 9.25731 4.83203 9.52647 4.58925 9.83267C4.09838 10.4518 3.47667 11.1959 2.90918 11.7634L2.17261 12.5L2.90918 13.2366C3.47667 13.8041 4.09838 14.5482 4.58925 15.1673C4.83203 15.4735 5.03775 15.7427 5.18247 15.9349C5.25476 16.0309 5.31166 16.1075 5.35014 16.1596L5.39364 16.2187L5.4043 16.2333L5.40673 16.2367C5.7449 16.702 6.39679 16.8058 6.86219 16.4677C7.32762 16.1296 7.43079 15.4781 7.09264 15.0127L6.24992 15.625C7.09264 15.0127 7.09269 15.0128 7.09264 15.0127L7.08751 15.0057L7.07451 14.9879L7.026 14.922C6.98406 14.8651 6.92331 14.7834 6.84679 14.6818C6.69392 14.4787 6.47742 14.1955 6.2217 13.8729C6.13766 13.767 6.04882 13.656 5.95609 13.5417H14.5832V11.4583H5.95609Z" fill="#FB0000"/>
</svg>
