<svg width="21" height="21" viewBox="0 0 21 21" fill="none" xmlns="http://www.w3.org/2000/svg">
<g clip-path="url(#clip0_100_8818)">
<path d="M18.5043 14.8748C18.2055 14.6436 17.8975 13.7864 17.7104 12.5708C17.5462 11.5045 17.4918 10.4106 17.4944 9.64362L17.4944 7.01044C17.4944 3.14509 14.3605 0 10.4997 0C6.63898 0 3.505 3.14509 3.505 7.01048V9.6335C3.50529 9.83158 3.49824 10.1611 3.47664 10.5785C3.44135 11.2606 3.37745 11.94 3.27876 12.5681C3.08757 13.7847 2.77711 14.6429 2.47575 14.8763C1.80003 15.3964 1.98426 16.5061 2.87031 16.7049C2.88691 16.7087 2.90347 16.7119 2.92002 16.7146C2.9215 16.7149 2.92293 16.715 2.92437 16.7153C3.9985 16.9401 5.07902 17.1167 6.16282 17.245C6.46258 19.3673 8.28607 21 10.491 21C12.6954 21 14.5186 19.368 14.819 17.2465C15.9062 17.1178 16.9882 16.9407 18.062 16.7146C18.0785 16.7119 18.0951 16.7086 18.1117 16.7049C18.9977 16.5061 19.1819 15.3964 18.5043 14.8748ZM10.491 19.2513C9.31651 19.2513 8.32226 18.4792 7.98803 17.4149C9.65672 17.529 11.3289 17.5292 12.9935 17.4161C12.6589 18.4798 11.665 19.2513 10.491 19.2513ZM13.9827 15.5792C13.9508 15.5788 13.9186 15.5801 13.886 15.5833C11.628 15.8033 9.35389 15.8033 7.09592 15.5833C7.06329 15.5801 7.03092 15.5788 6.99891 15.5792C6.11237 15.4905 5.22861 15.368 4.34986 15.2114C4.6495 14.5934 4.85586 13.7964 5.00623 12.8396C5.19357 11.6474 5.25488 10.4626 5.25365 9.63367V7.01048C5.25365 4.10946 7.60605 1.7487 10.4997 1.7487C13.3933 1.7487 15.7457 4.10946 15.7457 7.01048V9.6335C15.7428 10.488 15.8013 11.6627 15.982 12.8369C16.1295 13.7949 16.3339 14.5928 16.6325 15.2112C15.7535 15.3678 14.8695 15.4904 13.9827 15.5792Z" fill="#012939"/>
<path d="M19.9243 6.15911C19.6207 5.78361 19.0701 5.72533 18.6946 6.02895C18.3191 6.33256 18.2609 6.88307 18.5645 7.25857C19.0019 7.79953 19.2435 8.47012 19.2435 9.18059C19.2435 9.89065 19.0013 10.5622 18.5636 11.1035C18.26 11.479 18.3183 12.0295 18.6938 12.3331C19.0693 12.6367 19.6198 12.5785 19.9234 12.203C20.6103 11.3534 20.9922 10.2948 20.9922 9.18059C20.9922 8.06617 20.611 7.00844 19.9243 6.15911Z" fill="#012939"/>
<path d="M2.4355 11.1035C1.99811 10.5626 1.75647 9.89196 1.75647 9.18149C1.75647 8.47143 1.99869 7.7999 2.43636 7.25857C2.73998 6.88307 2.6817 6.33256 2.3062 6.02895C1.93069 5.72533 1.38019 5.78361 1.07657 6.15911C0.389667 7.00869 0.0078125 8.06732 0.0078125 9.18149C0.0078125 10.2959 0.389011 11.3536 1.07571 12.203C1.37933 12.5785 1.92983 12.6367 2.30533 12.3331C2.6808 12.0295 2.73908 11.479 2.4355 11.1035Z" fill="#012939"/>
<path d="M10.4909 2.63849C8.07919 2.63849 6.11914 4.5985 6.11914 7.01021C6.11914 7.49309 6.51059 7.88453 6.99347 7.88453C7.47635 7.88453 7.86779 7.49309 7.86779 7.01021C7.86779 5.56431 9.04492 4.38718 10.4908 4.38718C10.9737 4.38718 11.3651 3.99574 11.3651 3.51286C11.3651 3.02997 10.9737 2.63849 10.4909 2.63849Z" fill="#012939"/>
</g>
<defs>
<clipPath id="clip0_100_8818">
<rect width="21" height="21" fill="white"/>
</clipPath>
</defs>
</svg>
