<svg width="40" height="40" viewBox="0 0 40 40" fill="none" xmlns="http://www.w3.org/2000/svg">
<circle cx="20" cy="20" r="19" fill="#4E6A95" stroke="white" stroke-width="2"/>
<g clip-path="url(#clip0_100_8176)">
<path d="M16.9375 24.0625C17.5674 24.0625 18.1715 23.8123 18.6169 23.3669C19.0623 22.9215 19.3125 22.3174 19.3125 21.6875C19.3125 21.0576 19.0623 20.4535 18.6169 20.0081C18.1715 19.5627 17.5674 19.3125 16.9375 19.3125C16.3076 19.3125 15.7035 19.5627 15.2581 20.0081C14.8127 20.4535 14.5625 21.0576 14.5625 21.6875C14.5625 22.3174 14.8127 22.9215 15.2581 23.3669C15.7035 23.8123 16.3076 24.0625 16.9375 24.0625ZM16.9375 20.5C17.2524 20.5 17.5545 20.6251 17.7772 20.8478C17.9999 21.0705 18.125 21.3726 18.125 21.6875C18.125 22.0024 17.9999 22.3045 17.7772 22.5272C17.5545 22.7499 17.2524 22.875 16.9375 22.875C16.6226 22.875 16.3205 22.7499 16.0978 22.5272C15.8751 22.3045 15.75 22.0024 15.75 21.6875C15.75 21.3726 15.8751 21.0705 16.0978 20.8478C16.3205 20.6251 16.6226 20.5 16.9375 20.5ZM19.9062 25.25H13.9688C13.5789 25.25 13.1928 25.3268 12.8327 25.476C12.4725 25.6252 12.1452 25.8439 11.8695 26.1195C11.5939 26.3952 11.3752 26.7225 11.226 27.0827C11.0768 27.4428 11 27.8289 11 28.2188C11 28.6912 11.1877 29.1442 11.5217 29.4783C11.8558 29.8123 12.3088 30 12.7812 30H21.0938C21.5662 30 22.0192 29.8123 22.3533 29.4783C22.6873 29.1442 22.875 28.6912 22.875 28.2188C22.875 27.4314 22.5622 26.6763 22.0055 26.1195C21.4487 25.5628 20.6936 25.25 19.9062 25.25ZM21.0938 28.8125H12.7812C12.6238 28.8125 12.4728 28.7499 12.3614 28.6386C12.2501 28.5272 12.1875 28.3762 12.1875 28.2188C12.1875 27.7463 12.3752 27.2933 12.7092 26.9592C13.0433 26.6252 13.4963 26.4375 13.9688 26.4375H19.9062C20.3787 26.4375 20.8317 26.6252 21.1658 26.9592C21.4998 27.2933 21.6875 27.7463 21.6875 28.2188C21.6875 28.3762 21.6249 28.5272 21.5136 28.6386C21.4022 28.7499 21.2512 28.8125 21.0938 28.8125ZM30 13.9688V19.9062C30 20.6936 29.6872 21.4487 29.1305 22.0055C28.5737 22.5622 27.8186 22.875 27.0312 22.875H23.7146L21.5141 25.0766C21.4589 25.1317 21.3933 25.1754 21.3212 25.2051C21.2491 25.2349 21.1718 25.2501 21.0938 25.25C21.0159 25.2503 20.9388 25.235 20.8669 25.2049C20.7584 25.16 20.6655 25.0839 20.6002 24.9862C20.5349 24.8886 20.5 24.7737 20.5 24.6562V22.2812C20.5 22.1238 20.5626 21.9728 20.6739 21.8614C20.7853 21.7501 20.9363 21.6875 21.0938 21.6875C21.2512 21.6875 21.4022 21.7501 21.5136 21.8614C21.6249 21.9728 21.6875 22.1238 21.6875 22.2812V23.2229L23.0484 21.8609C23.1036 21.8058 23.1692 21.7621 23.2413 21.7324C23.3134 21.7026 23.3907 21.6874 23.4688 21.6875H27.0312C27.5037 21.6875 27.9567 21.4998 28.2908 21.1658C28.6248 20.8317 28.8125 20.3787 28.8125 19.9062V13.9688C28.8125 13.4963 28.6248 13.0433 28.2908 12.7092C27.9567 12.3752 27.5037 12.1875 27.0312 12.1875H18.7188C18.2463 12.1875 17.7933 12.3752 17.4592 12.7092C17.1252 13.0433 16.9375 13.4963 16.9375 13.9688V17.5312C16.9375 17.6887 16.8749 17.8397 16.7636 17.9511C16.6522 18.0624 16.5012 18.125 16.3438 18.125C16.1863 18.125 16.0353 18.0624 15.9239 17.9511C15.8126 17.8397 15.75 17.6887 15.75 17.5312V13.9688C15.75 13.1814 16.0628 12.4263 16.6195 11.8695C17.1763 11.3128 17.9314 11 18.7188 11H27.0312C27.8186 11 28.5737 11.3128 29.1305 11.8695C29.6872 12.4263 30 13.1814 30 13.9688ZM21.8609 19.1391L19.4859 16.7641C19.4306 16.709 19.3867 16.6434 19.3568 16.5713C19.3268 16.4992 19.3114 16.4218 19.3114 16.3438C19.3114 16.2657 19.3268 16.1883 19.3568 16.1162C19.3867 16.0441 19.4306 15.9785 19.4859 15.9234C19.541 15.8681 19.6066 15.8242 19.6787 15.7943C19.7508 15.7643 19.8282 15.7489 19.9062 15.7489C19.9843 15.7489 20.0617 15.7643 20.1338 15.7943C20.2059 15.8242 20.2715 15.8681 20.3266 15.9234L22.2812 17.8792L25.4234 14.7359C25.4785 14.6806 25.5441 14.6367 25.6162 14.6068C25.6883 14.5768 25.7657 14.5614 25.8438 14.5614C25.9218 14.5614 25.9992 14.5768 26.0713 14.6068C26.1434 14.6367 26.209 14.6806 26.2641 14.7359C26.3194 14.791 26.3633 14.8566 26.3932 14.9287C26.4232 15.0008 26.4386 15.0782 26.4386 15.1562C26.4386 15.2343 26.4232 15.3117 26.3932 15.3838C26.3633 15.4559 26.3194 15.5215 26.2641 15.5766L22.7016 19.1391C22.6464 19.1942 22.5808 19.2379 22.5087 19.2676C22.4366 19.2974 22.3593 19.3126 22.2812 19.3125C22.2032 19.3126 22.1259 19.2974 22.0538 19.2676C21.9817 19.2379 21.9161 19.1942 21.8609 19.1391Z" fill="white"/>
</g>
<defs>
<clipPath id="clip0_100_8176">
<rect width="19" height="19" fill="white" transform="translate(11 11)"/>
</clipPath>
</defs>
</svg>
