<svg width="27" height="27" viewBox="0 0 27 27" fill="none" xmlns="http://www.w3.org/2000/svg">
<path fill-rule="evenodd" clip-rule="evenodd" d="M4.15226 9.57039C4.15226 12.7733 5.93201 15.5216 8.43401 15.5216C10.9349 15.5216 12.7124 12.7733 12.7124 9.57039C12.7124 6.36864 11.1959 4.49664 8.43401 4.49664C5.67101 4.49664 4.15226 6.36864 4.15226 9.57039ZM1.49164 21.591C2.41414 22.1951 4.73051 22.4966 8.43739 22.4966C12.1443 22.4966 14.4595 22.1951 15.3831 21.5921C15.4668 21.5374 15.5344 21.4613 15.5789 21.3717C15.6234 21.2821 15.6432 21.1823 15.6363 21.0825C15.4653 18.576 13.0634 17.3216 8.43289 17.3216C3.80126 17.3216 1.40276 18.576 1.23851 21.0836C1.23199 21.1831 1.25199 21.2824 1.29647 21.3716C1.34094 21.4607 1.40829 21.5364 1.49164 21.591ZM25.5453 12.0454C25.6527 11.9416 25.7384 11.8175 25.7974 11.6802C25.8563 11.543 25.8874 11.3953 25.8887 11.246C25.89 11.0966 25.8615 10.9485 25.8049 10.8102C25.7484 10.6719 25.6648 10.5463 25.5592 10.4407C25.4536 10.3351 25.328 10.2515 25.1897 10.195C25.0514 10.1384 24.9033 10.1099 24.7539 10.1112C24.6046 10.1125 24.4569 10.1436 24.3197 10.2025C24.1824 10.2615 24.0583 10.3472 23.9545 10.4546L19.1249 15.2843L16.5453 12.7046C16.3331 12.4997 16.0489 12.3863 15.7539 12.3889C15.459 12.3914 15.1768 12.5098 14.9682 12.7183C14.7596 12.9269 14.6413 13.2091 14.6388 13.5041C14.6362 13.799 14.7496 14.0832 14.9545 14.2954L18.3295 17.6704C18.5405 17.8813 18.8266 17.9998 19.1249 17.9998C19.4232 17.9998 19.7093 17.8813 19.9203 17.6704L25.5453 12.0454Z" fill="#012939"/>
</svg>
