<svg width="22" height="23" viewBox="0 0 22 23" fill="none" xmlns="http://www.w3.org/2000/svg">
<path fill-rule="evenodd" clip-rule="evenodd" d="M19.9794 9.1815C19.6314 5.61217 17.5212 0 10.9999 0C4.47856 0 2.36839 5.61217 2.02043 9.1815C0.7998 9.64476 -0.00534787 10.8167 2.67439e-05 12.1223V13.6937C2.67439e-05 15.4294 1.40714 16.8365 3.14287 16.8365C4.87859 16.8365 6.28568 15.4294 6.28568 13.6937V12.1223C6.28004 10.8449 5.50446 9.69703 4.32142 9.21518C4.54591 7.1499 5.64589 2.24487 10.9999 2.24487C16.3539 2.24487 17.4427 7.1499 17.6671 9.21518C16.4865 9.69807 15.7148 10.8467 15.7141 12.1223V13.6937C15.719 14.9003 16.4118 15.9984 17.4988 16.5222C17.0274 17.4089 15.8264 18.6099 12.8744 18.9691C12.2843 18.0731 11.1426 17.7198 10.1496 18.126C9.15657 18.5323 8.58979 19.5844 8.79687 20.6371C9.00395 21.6898 9.927 22.4487 10.9999 22.4487C11.8477 22.444 12.6206 21.962 12.9978 21.2028C17.8131 20.6528 19.3508 18.1722 19.8334 16.713C21.1392 16.2901 22.0173 15.0661 21.9997 13.6937V12.1223C22.0051 10.8167 21.2 9.64476 19.9794 9.1815ZM4.04081 13.6937C4.04081 14.1896 3.63879 14.5916 3.14287 14.5916C2.64694 14.5916 2.24492 14.1896 2.24492 13.6937V12.1223C2.24492 11.8015 2.41607 11.505 2.69389 11.3446C2.97172 11.1842 3.31401 11.1842 3.59184 11.3446C3.86966 11.505 4.04081 11.8015 4.04081 12.1223V13.6937ZM17.959 12.1223C17.959 11.6264 18.361 11.2243 18.8569 11.2243C19.3528 11.2243 19.7549 11.6264 19.7549 12.1223V13.6937C19.7549 14.1896 19.3528 14.5916 18.8569 14.5916C18.361 14.5916 17.959 14.1896 17.959 13.6937V12.1223Z" fill="#012939"/>
</svg>
