<svg width="19" height="13" viewBox="0 0 19 13" fill="none" xmlns="http://www.w3.org/2000/svg">
<path id="video-camera" fill-rule="evenodd" clip-rule="evenodd" d="M17.4167 11.0833L13.4583 9.5V11.0833C13.4583 11.5033 13.2915 11.906 12.9946 12.2029C12.6976 12.4999 12.2949 12.6667 11.875 12.6667H1.58333C1.16341 12.6667 0.760703 12.4999 0.463771 12.2029C0.166838 11.906 0 11.5033 0 11.0833V1.58333C0 1.16341 0.166838 0.760679 0.463771 0.463746C0.760703 0.166814 1.16341 0 1.58333 0H11.875C12.2949 0 12.6976 0.166814 12.9946 0.463746C13.2915 0.760679 13.4583 1.16341 13.4583 1.58333V3.16667L17.4167 1.58333C17.8366 1.58333 18.2393 1.75015 18.5362 2.04708C18.8332 2.34401 19 2.74674 19 3.16667V9.5C19 9.91993 18.8332 10.3227 18.5362 10.6196C18.2393 10.9165 17.8366 11.0833 17.4167 11.0833ZM11.875 7.91667V1.58333H1.58333V11.0833H11.875V7.91667ZM17.4167 3.16667L13.4583 4.75V7.91667L17.4167 9.5V3.16667Z" fill="black" fill-opacity="0.47"/>
</svg>
