<svg width="20" height="16" viewBox="0 0 20 16" fill="none" xmlns="http://www.w3.org/2000/svg">
<g id="Page-1">
<g id="Dribbble-Light-Preview">
<g id="icons">
<path id="camera-[#951]" fill-rule="evenodd" clip-rule="evenodd" d="M0 15.1111C0 14.6204 0.398222 14.2222 0.888889 14.2222H4.44444C4.93511 14.2222 5.33333 14.6204 5.33333 15.1111C5.33333 15.6018 4.93511 16 4.44444 16H0.888889C0.398222 16 0 15.6018 0 15.1111ZM10.6667 13.7778C9.68622 13.7778 8.88889 12.9804 8.88889 12C8.88889 11.0196 9.68622 10.2222 10.6667 10.2222C11.6471 10.2222 12.4444 11.0196 12.4444 12C12.4444 12.9804 11.6471 13.7778 10.6667 13.7778ZM10.6667 8.44444C8.70311 8.44444 7.11111 10.0364 7.11111 12C7.11111 13.9636 8.70311 15.5556 10.6667 15.5556C12.6302 15.5556 14.2222 13.9636 14.2222 12C14.2222 10.0364 12.6302 8.44444 10.6667 8.44444ZM13.3333 3.55556H8V2.66667C8 2.176 8.39822 1.77778 8.88889 1.77778H12.4444C12.9351 1.77778 13.3333 2.176 13.3333 2.66667V3.55556ZM18.6667 3.55556V2.66667C18.6667 2.176 18.2684 1.77778 17.7778 1.77778C17.2871 1.77778 16.8889 2.176 16.8889 2.66667V3.55556H15.1111V1.77778C15.1111 0.795556 14.3156 0 13.3333 0H8C7.01778 0 6.22222 0.795556 6.22222 1.77778V3.55556H3.55556C2.57333 3.55556 1.77778 4.35111 1.77778 5.33333V10.6667H3.55556V6.22222C3.55556 5.73156 3.95378 5.33333 4.44444 5.33333H16.8889C17.3796 5.33333 17.7778 5.73156 17.7778 6.22222V14.2222H16.8889C16.3982 14.2222 16 14.6204 16 15.1111C16 15.6018 16.3982 16 16.8889 16H17.7778C18.76 16 19.5556 15.2044 19.5556 14.2222V3.55556H18.6667Z" fill="white"/>
</g>
</g>
</g>
</svg>
