<svg width="40" height="40" viewBox="0 0 40 40" fill="none" xmlns="http://www.w3.org/2000/svg">
<circle cx="20" cy="20" r="19" fill="#012939" stroke="white" stroke-width="2"/>
<path d="M27.0313 20.5C26.8738 20.5 26.7228 20.5625 26.6114 20.6739C26.5001 20.7852 26.4375 20.9363 26.4375 21.0937V22.875C26.4375 23.0325 26.5001 23.1835 26.6114 23.2948C26.7228 23.4062 26.8738 23.4687 27.0313 23.4687C27.1887 23.4687 27.3398 23.4062 27.4511 23.2948C27.5625 23.1835 27.625 23.0325 27.625 22.875V21.0937C27.625 20.9363 27.5625 20.7852 27.4511 20.6739C27.3398 20.5625 27.1887 20.5 27.0313 20.5ZM27.3638 18.2259C27.3307 18.2033 27.2948 18.1853 27.2569 18.1725C27.2214 18.1546 27.1834 18.1426 27.1441 18.1369C27.0487 18.1178 26.9501 18.1224 26.8569 18.1503C26.7637 18.1783 26.6788 18.2287 26.6097 18.2972C26.5547 18.3527 26.5111 18.4185 26.4816 18.4908C26.452 18.5631 26.4371 18.6406 26.4375 18.7187C26.4375 18.8762 26.5001 19.0272 26.6114 19.1386C26.7228 19.2499 26.8738 19.3125 27.0313 19.3125C27.1887 19.3125 27.3398 19.2499 27.4511 19.1386C27.5625 19.0272 27.625 18.8762 27.625 18.7187C27.6228 18.5615 27.5613 18.411 27.4528 18.2972L27.3638 18.2259Z" fill="white"/>
<path d="M25.8438 13.375H25.25C25.25 12.9026 25.0623 12.4495 24.7283 12.1155C24.3942 11.7814 23.9412 11.5938 23.4688 11.5938H17.5312C17.0588 11.5938 16.6058 11.7814 16.2717 12.1155C15.9377 12.4495 15.75 12.9026 15.75 13.375H15.1562C14.6919 13.3748 14.2459 13.556 13.9132 13.8798C13.5805 14.2037 13.3874 14.6446 13.375 15.1088V27.6725C13.3874 28.1366 13.5805 28.5776 13.9132 28.9014C14.2459 29.2253 14.6919 29.4064 15.1562 29.4062H25.8438C26.3081 29.4064 26.7541 29.2253 27.0868 28.9014C27.4195 28.5776 27.6126 28.1366 27.625 27.6725V24.6562C27.625 24.4988 27.5624 24.3478 27.4511 24.2364C27.3397 24.1251 27.1887 24.0625 27.0312 24.0625C26.8738 24.0625 26.7228 24.1251 26.6114 24.2364C26.5001 24.3478 26.4375 24.4988 26.4375 24.6562V27.6725C26.4255 27.8216 26.3577 27.9607 26.2477 28.062C26.1376 28.1632 25.9933 28.2192 25.8438 28.2188H15.1562C15.0067 28.2192 14.8624 28.1632 14.7523 28.062C14.6423 27.9607 14.5745 27.8216 14.5625 27.6725V15.1088C14.5745 14.9597 14.6423 14.8206 14.7523 14.7193C14.8624 14.618 15.0067 14.562 15.1562 14.5625H15.75C15.75 15.0349 15.9377 15.488 16.2717 15.822C16.6058 16.1561 17.0588 16.3438 17.5312 16.3438H23.4688C23.9412 16.3438 24.3942 16.1561 24.7283 15.822C25.0623 15.488 25.25 15.0349 25.25 14.5625H25.8438C25.9933 14.562 26.1376 14.618 26.2477 14.7193C26.3577 14.8206 26.4255 14.9597 26.4375 15.1088V16.3438C26.4375 16.5012 26.5001 16.6522 26.6114 16.7636C26.7228 16.8749 26.8738 16.9375 27.0312 16.9375C27.1887 16.9375 27.3397 16.8749 27.4511 16.7636C27.5624 16.6522 27.625 16.5012 27.625 16.3438V15.1088C27.6126 14.6446 27.4195 14.2037 27.0868 13.8798C26.7541 13.556 26.3081 13.3748 25.8438 13.375ZM24.0625 14.5625C24.0625 14.72 23.9999 14.871 23.8886 14.9823C23.7772 15.0937 23.6262 15.1562 23.4688 15.1562H17.5312C17.3738 15.1562 17.2228 15.0937 17.1114 14.9823C17.0001 14.871 16.9375 14.72 16.9375 14.5625V13.375C16.9375 13.2175 17.0001 13.0665 17.1114 12.9552C17.2228 12.8438 17.3738 12.7812 17.5312 12.7812H23.4688C23.6262 12.7812 23.7772 12.8438 23.8886 12.9552C23.9999 13.0665 24.0625 13.2175 24.0625 13.375V14.5625Z" fill="white"/>
<path d="M24.2167 18.9147L19.3123 24.3891L16.7651 21.8597C16.6515 21.7624 16.5054 21.7116 16.356 21.7174C16.2066 21.7231 16.0648 21.7851 15.9591 21.8908C15.8533 21.9966 15.7914 22.1383 15.7856 22.2878C15.7798 22.4372 15.8307 22.5833 15.9279 22.6969L18.8967 25.6656C19.0063 25.7775 19.1557 25.8415 19.3123 25.8438C19.3931 25.8419 19.4728 25.8236 19.5463 25.7899C19.6198 25.7562 19.6856 25.7079 19.7398 25.6478L25.0836 19.7103C25.1891 19.593 25.2436 19.4386 25.2353 19.281C25.2269 19.1235 25.1563 18.9757 25.039 18.8702C24.9217 18.7647 24.7673 18.7101 24.6097 18.7184C24.4522 18.7268 24.3044 18.7974 24.1989 18.9147H24.2167Z" fill="white"/>
</svg>
