<svg width="28" height="28" viewBox="0 0 28 28" fill="none" xmlns="http://www.w3.org/2000/svg">
<path d="M13.9998 3.49998C11.4127 3.50902 8.92004 4.47286 6.99984 6.20665V3.49998C6.99984 3.19056 6.87693 2.89381 6.65813 2.67502C6.43934 2.45623 6.1426 2.33331 5.83318 2.33331C5.52376 2.33331 5.22701 2.45623 5.00822 2.67502C4.78943 2.89381 4.66651 3.19056 4.66651 3.49998V9.33331C4.66557 9.62722 4.77559 9.91065 4.97458 10.127C5.17358 10.3432 5.44688 10.4765 5.73984 10.5H11.6665C11.9759 10.5 12.2727 10.3771 12.4915 10.1583C12.7103 9.93948 12.8332 9.64273 12.8332 9.33331C12.8332 9.02389 12.7103 8.72715 12.4915 8.50836C12.2727 8.28956 11.9759 8.16665 11.6665 8.16665H8.29484C9.444 7.04474 10.8984 6.28656 12.4762 5.98694C14.054 5.68731 15.6852 5.85955 17.1656 6.4821C18.646 7.10465 19.91 8.14988 20.7995 9.48705C21.689 10.8242 22.1645 12.394 22.1665 14C22.1665 14.3094 22.2894 14.6061 22.5082 14.8249C22.727 15.0437 23.0238 15.1666 23.3332 15.1666C23.6426 15.1666 23.9393 15.0437 24.1581 14.8249C24.3769 14.6061 24.4998 14.3094 24.4998 14C24.4998 11.2152 23.3936 8.54449 21.4245 6.57536C19.4553 4.60623 16.7846 3.49998 13.9998 3.49998Z" fill="#012939"/>
<path d="M22.26 17.5H16.3333C16.0239 17.5 15.7272 17.6229 15.5084 17.8417C15.2896 18.0605 15.1667 18.3572 15.1667 18.6666C15.1667 18.9761 15.2896 19.2728 15.5084 19.4916C15.7272 19.7104 16.0239 19.8333 16.3333 19.8333H19.705C18.5558 20.9552 17.1014 21.7134 15.5236 22.013C13.9458 22.3126 12.3147 22.1404 10.8343 21.5179C9.35383 20.8953 8.08982 19.8501 7.20033 18.5129C6.31084 17.1757 5.83535 15.606 5.83333 14C5.83333 13.6906 5.71042 13.3938 5.49162 13.175C5.27283 12.9562 4.97609 12.8333 4.66667 12.8333C4.35725 12.8333 4.0605 12.9562 3.84171 13.175C3.62292 13.3938 3.5 13.6906 3.5 14C3.50633 16.0241 4.0976 18.0033 5.20262 19.6992C6.30763 21.3951 7.87929 22.7355 9.72838 23.559C11.5775 24.3824 13.6252 24.6539 15.6249 24.3406C17.6247 24.0274 19.4913 23.1428 21 21.7933V24.5C21 24.8094 21.1229 25.1061 21.3417 25.3249C21.5605 25.5437 21.8572 25.6666 22.1667 25.6666C22.4761 25.6666 22.7728 25.5437 22.9916 25.3249C23.2104 25.1061 23.3333 24.8094 23.3333 24.5V18.6666C23.3343 18.3727 23.2243 18.0893 23.0253 17.873C22.8263 17.6567 22.553 17.5235 22.26 17.5Z" fill="#012939"/>
</svg>
