<svg width="40" height="40" viewBox="0 0 40 40" fill="none" xmlns="http://www.w3.org/2000/svg">
<circle cx="20" cy="20" r="19" fill="#EB4335" stroke="white" stroke-width="2"/>
<g clip-path="url(#clip0_100_8149)">
<path d="M15.75 10H11V14.75H15.75V10Z" fill="white"/>
<path d="M22.875 10H18.125V14.75H22.875V10Z" fill="white"/>
<path d="M30 10H25.25V14.75H30V10Z" fill="white"/>
<path d="M15.75 17.125H11V21.875H15.75V17.125Z" fill="white"/>
<path d="M22.875 17.125H18.125V21.875H22.875V17.125Z" fill="white"/>
<path d="M30 17.125H25.25V21.875H30V17.125Z" fill="white"/>
<path d="M15.75 24.25H11V29H15.75V24.25Z" fill="white"/>
<path d="M22.875 24.25H18.125V29H22.875V24.25Z" fill="white"/>
<path d="M30 24.25H25.25V29H30V24.25Z" fill="white"/>
</g>
<defs>
<clipPath id="clip0_100_8149">
<rect width="19" height="19" fill="white" transform="translate(11 10)"/>
</clipPath>
</defs>
</svg>
